<svg xmlns="http://www.w3.org/2000/svg" width="225" height="166" viewBox="0 0 225 166" fill="none">
  <path d="M218.316 119.502H178.505H166.852C165.566 119.502 164.53 118.466 164.53 117.18C164.53 115.894 165.566 114.858 166.852 114.858H189.167C190.453 114.858 191.488 113.823 191.488 112.536C191.488 111.25 190.453 110.214 189.167 110.214H6.68469C5.39838 110.214 4.36279 111.25 4.36279 112.536C4.36279 113.823 5.39838 114.858 6.68469 114.858H70.0083C71.2946 114.858 72.3302 115.894 72.3302 117.18C72.3302 118.466 71.2946 119.502 70.0083 119.502H58.6386H35.8338H9.88957C8.60326 119.502 7.56767 120.538 7.56767 121.824C7.56767 123.11 8.60326 124.146 9.88957 124.146H9.26822C10.5545 124.146 11.5901 125.181 11.5901 126.468C11.5901 127.754 10.5545 128.79 9.26822 128.79H9.18101C7.8947 128.79 6.85911 129.825 6.85911 131.111C6.85911 132.398 7.8947 133.433 9.18101 133.433H18.7084C19.9948 133.433 21.0303 134.469 21.0303 135.755C21.0303 137.042 19.9948 138.077 18.7084 138.077H9.88957C8.60326 138.077 7.56767 139.113 7.56767 140.399C7.56767 141.685 8.60326 142.721 9.88957 142.721H17.3458C16.0595 142.721 15.0239 143.757 15.0239 145.043C15.0239 146.329 16.0595 147.365 17.3458 147.365H19.417C20.7033 147.365 21.7389 148.4 21.7389 149.687C21.7389 150.973 20.7033 152.009 19.417 152.009H9.19191C7.9056 152.009 6.87001 153.044 6.87001 154.33C6.87001 155.617 7.9056 156.652 9.19191 156.652H46.4949H48.5661C49.8524 156.652 50.888 157.688 50.888 158.974C50.888 160.261 49.8524 161.296 48.5661 161.296H38.341C37.0547 161.296 36.0191 162.332 36.0191 163.618C36.0191 164.904 37.0547 165.94 38.341 165.94H179.105C180.391 165.94 181.427 164.904 181.427 163.618C181.427 162.332 180.391 161.296 179.105 161.296H167.223C165.937 161.296 164.901 160.261 164.901 158.974C164.901 157.688 165.937 156.652 167.223 156.652H207.676C208.963 156.652 209.998 155.617 209.998 154.33C209.998 153.044 208.963 152.009 207.676 152.009H183.378C184.664 152.009 185.7 150.973 185.7 149.687C185.7 148.4 184.664 147.365 183.378 147.365H180.282C179.966 147.365 179.672 147.299 179.41 147.19C180.26 146.842 180.86 146.013 180.86 145.043C180.86 144.073 180.26 143.244 179.41 142.895C179.683 142.786 179.977 142.721 180.282 142.721H207.687C208.974 142.721 210.009 141.685 210.009 140.399C210.009 139.113 208.974 138.077 207.687 138.077H206.826C205.54 138.077 204.504 137.042 204.504 135.755C204.504 134.469 205.54 133.433 206.826 133.433H207.687C208.974 133.433 210.009 132.398 210.009 131.111C210.009 129.825 208.974 128.79 207.687 128.79H196.034C194.748 128.79 193.712 127.754 193.712 126.468C193.712 125.181 194.748 124.146 196.034 124.146H218.348C219.635 124.146 220.67 123.11 220.67 121.824C220.638 120.538 219.602 119.502 218.316 119.502ZM58.6386 124.146H58.9983C60.2846 124.146 61.3202 125.181 61.3202 126.468C61.3202 127.754 60.2846 128.79 58.9983 128.79H42.854C41.5677 128.79 40.5321 127.754 40.5321 126.468C40.5321 125.181 41.5677 124.146 42.854 124.146H58.6386Z" fill="#754FE2"/>
  <path d="M185.613 124.146H186.474C187.76 124.146 188.796 123.11 188.796 121.824C188.796 120.538 187.76 119.502 186.474 119.502H174.821C173.535 119.502 172.499 118.466 172.499 117.18C172.499 115.894 173.535 114.858 174.821 114.858H197.146C198.432 114.858 199.468 113.823 199.468 112.536C199.468 111.25 198.432 110.214 197.146 110.214H14.6642C13.3779 110.214 12.3423 111.25 12.3423 112.536C12.3423 113.823 13.3779 114.858 14.6642 114.858H77.9878C79.2741 114.858 80.3097 115.894 80.3097 117.18C80.3097 118.466 79.2741 119.502 77.9878 119.502H66.6072H17.8582C16.5719 119.502 15.5363 120.538 15.5363 121.824C15.5363 123.11 16.5719 124.146 17.8582 124.146H17.2368C18.5231 124.146 19.5587 125.181 19.5587 126.468C19.5587 127.754 18.5231 128.79 17.2368 128.79H17.1496C15.8633 128.79 14.8277 129.825 14.8277 131.111C14.8277 132.398 15.8633 133.433 17.1496 133.433H26.677C27.9633 133.433 28.9989 134.469 28.9989 135.755C28.9989 137.042 27.9633 138.077 26.677 138.077H17.8691C16.5828 138.077 15.5472 139.113 15.5472 140.399C15.5472 141.685 16.5828 142.721 17.8691 142.721H25.3253C24.039 142.721 23.0034 143.757 23.0034 145.043C23.0034 146.329 24.039 147.365 25.3253 147.365H27.3965C28.6828 147.365 29.7184 148.4 29.7184 149.687C29.7184 150.973 28.6828 152.009 27.3965 152.009H17.1714C15.8851 152.009 14.8495 153.044 14.8495 154.331C14.8495 155.617 15.8851 156.652 17.1714 156.652H157.935C159.222 156.652 160.257 155.617 160.257 154.331C160.257 153.044 159.222 152.009 157.935 152.009H146.053C144.767 152.009 143.731 150.973 143.731 149.687C143.731 148.4 144.767 147.365 146.053 147.365H186.507C187.793 147.365 188.829 146.329 188.829 145.043C188.829 143.757 187.793 142.721 186.507 142.721H162.208C163.495 142.721 164.53 141.685 164.53 140.399C164.53 139.113 163.495 138.077 162.208 138.077H159.113C157.826 138.077 156.791 137.042 156.791 135.755C156.791 134.469 157.826 133.433 159.113 133.433H186.518C187.804 133.433 188.839 132.398 188.839 131.111C188.839 129.825 187.804 128.79 186.518 128.79H185.656C184.37 128.79 183.335 127.754 183.335 126.468C183.291 125.181 184.337 124.146 185.613 124.146ZM50.8226 128.79C49.5363 128.79 48.5007 127.754 48.5007 126.468C48.5007 125.181 49.5363 124.146 50.8226 124.146H66.6072H66.9778C68.2641 124.146 69.2997 125.181 69.2997 126.468C69.2997 127.754 68.2641 128.79 66.9778 128.79H50.8226Z" fill="#B2A7D4"/>
  <path d="M175.235 149.687H168.204C166.918 149.687 165.882 150.722 165.882 152.009C165.882 153.295 166.918 154.33 168.204 154.33H175.235C176.522 154.33 177.557 153.295 177.557 152.009C177.557 150.722 176.522 149.687 175.235 149.687Z" fill="#B2A7D4"/>
  <path d="M174.81 135.755C173.524 135.755 172.488 136.791 172.488 138.077C172.488 139.364 173.524 140.399 174.81 140.399H178.32C179.607 140.399 180.642 139.364 180.642 138.077C180.642 136.791 179.607 135.755 178.32 135.755H174.81Z" fill="#B2A7D4"/>
  <path d="M18.9046 147.365C18.9046 146.078 17.869 145.043 16.5827 145.043H13.0616C11.7753 145.043 10.7397 146.078 10.7397 147.365C10.7397 148.651 11.7753 149.687 13.0616 149.687H16.5827C17.869 149.687 18.9046 148.64 18.9046 147.365Z" fill="#B2A7D4"/>
  <path d="M196.056 124.146H192.546C191.26 124.146 190.224 125.181 190.224 126.468C190.224 127.754 191.26 128.79 192.546 128.79H196.056C197.342 128.79 198.378 127.754 198.378 126.468C198.378 125.181 197.342 124.146 196.056 124.146Z" fill="#B2A7D4"/>
  <path d="M13.0401 126.468C13.0401 125.181 12.0045 124.146 10.7182 124.146H7.20813C5.92182 124.146 4.88623 125.181 4.88623 126.468C4.88623 127.754 5.92182 128.79 7.20813 128.79H10.7182C12.0045 128.79 13.0401 127.743 13.0401 126.468Z" fill="#B2A7D4"/>
  <path d="M204.21 114.858H200.7C199.414 114.858 198.378 115.894 198.378 117.18C198.378 118.466 199.414 119.502 200.7 119.502H204.21C205.496 119.502 206.532 118.466 206.532 117.18C206.532 115.894 205.496 114.858 204.21 114.858Z" fill="#B2A7D4"/>
  <path d="M3 107.249H222" stroke="#323440" stroke-width="5.3504" stroke-miterlimit="10" stroke-linecap="round" stroke-linejoin="round"/>
  <path d="M71.9336 39.3269H76.6796" stroke="#323440" stroke-width="2" stroke-miterlimit="10" stroke-linecap="round" stroke-linejoin="round"/>
  <path d="M36.749 39.3269H69.4235" stroke="#323440" stroke-width="2" stroke-miterlimit="10" stroke-linecap="round" stroke-linejoin="round"/>
  <path d="M34.6191 112.616H39.3804" stroke="#323440" stroke-width="5.3504" stroke-miterlimit="10" stroke-linecap="round" stroke-linejoin="round"/>
  <path d="M41.7534 112.616H71.5377" stroke="#323440" stroke-width="5.3504" stroke-miterlimit="10" stroke-linecap="round" stroke-linejoin="round"/>
  <path d="M88.4229 1.73911H110.419" stroke="#323440" stroke-width="2" stroke-miterlimit="10" stroke-linecap="round" stroke-linejoin="round"/>
  <path d="M33.3262 79.7593H55.3373" stroke="#323440" stroke-width="2" stroke-miterlimit="10" stroke-linecap="round" stroke-linejoin="round"/>
  <path d="M46.8949 57.0941C46.8949 58.5088 45.7389 59.6648 44.3242 59.6648C42.9095 59.6648 41.7534 58.5088 41.7534 57.0941C41.7534 55.6794 42.9095 54.5233 44.3242 54.5233C45.7541 54.5233 46.8949 55.6794 46.8949 57.0941Z" stroke="#323440" stroke-miterlimit="10" stroke-linecap="round" stroke-linejoin="round"/>
  <path d="M61.787 94.119C61.787 95.5337 60.6309 96.6898 59.2163 96.6898C57.8016 96.6898 56.6455 95.5337 56.6455 94.119C56.6455 92.7044 57.8016 91.5483 59.2163 91.5483C60.6309 91.5483 61.787 92.7044 61.787 94.119Z" stroke="#323440" stroke-miterlimit="10" stroke-linecap="round" stroke-linejoin="round"/>
  <path d="M46.7734 3.44284L46.8647 8.09759" stroke="#323440" stroke-miterlimit="10" stroke-linecap="round" stroke-linejoin="round"/>
  <path d="M46.9409 12.372L47.017 17.0115" stroke="#323440" stroke-miterlimit="10" stroke-linecap="round" stroke-linejoin="round"/>
  <path d="M53.6796 10.1055L49.04 10.1816" stroke="#323440" stroke-miterlimit="10" stroke-linecap="round" stroke-linejoin="round"/>
  <path d="M44.7655 10.2728L40.126 10.3489" stroke="#323440" stroke-miterlimit="10" stroke-linecap="round" stroke-linejoin="round"/>
  <path d="M51.5954 5.34421L48.3857 8.69076" stroke="#323440" stroke-miterlimit="10" stroke-linecap="round" stroke-linejoin="round"/>
  <path d="M45.4197 11.7635L42.1948 15.1101" stroke="#323440" stroke-miterlimit="10" stroke-linecap="round" stroke-linejoin="round"/>
  <path d="M51.7782 14.9276L48.4316 11.7179" stroke="#323440" stroke-miterlimit="10" stroke-linecap="round" stroke-linejoin="round"/>
  <path d="M45.3588 8.75164L42.0122 5.52678" stroke="#323440" stroke-miterlimit="10" stroke-linecap="round" stroke-linejoin="round"/>
  <path d="M39.2437 120.876L39.3349 125.516" stroke="#323440" stroke-miterlimit="10" stroke-linecap="round" stroke-linejoin="round"/>
  <path d="M39.4111 129.79L39.5024 134.43" stroke="#323440" stroke-miterlimit="10" stroke-linecap="round" stroke-linejoin="round"/>
  <path d="M46.1498 127.524L41.5103 127.615" stroke="#323440" stroke-miterlimit="10" stroke-linecap="round" stroke-linejoin="round"/>
  <path d="M37.2357 127.691L32.5962 127.782" stroke="#323440" stroke-miterlimit="10" stroke-linecap="round" stroke-linejoin="round"/>
  <path d="M44.0808 122.778L40.856 126.109" stroke="#323440" stroke-miterlimit="10" stroke-linecap="round" stroke-linejoin="round"/>
  <path d="M37.8899 129.197L34.665 132.544" stroke="#323440" stroke-miterlimit="10" stroke-linecap="round" stroke-linejoin="round"/>
  <path d="M44.2483 132.361L40.917 129.136" stroke="#323440" stroke-miterlimit="10" stroke-linecap="round" stroke-linejoin="round"/>
  <path d="M37.8289 126.17L34.4976 122.945" stroke="#323440" stroke-miterlimit="10" stroke-linecap="round" stroke-linejoin="round"/>
  <path d="M164.214 28.6753H160.813" stroke="#323440" stroke-width="2" stroke-miterlimit="10" stroke-linecap="round" stroke-linejoin="round"/>
  <path d="M189.428 28.6753H166.013" stroke="#323440" stroke-width="2" stroke-miterlimit="10" stroke-linecap="round" stroke-linejoin="round"/>
  <path d="M190.954 81.1961H187.542" stroke="#323440" stroke-width="2" stroke-miterlimit="10" stroke-linecap="round" stroke-linejoin="round"/>
  <path d="M185.842 81.1961H164.498" stroke="#323440" stroke-width="2" stroke-miterlimit="10" stroke-linecap="round" stroke-linejoin="round"/>
  <path d="M152.398 1.73911H136.624" stroke="#323440" stroke-width="2" stroke-miterlimit="10" stroke-linecap="round" stroke-linejoin="round"/>
  <path d="M191.881 57.65H176.107" stroke="#323440" stroke-width="2" stroke-miterlimit="10" stroke-linecap="round" stroke-linejoin="round"/>
  <path d="M182.157 41.4076C182.157 42.4214 182.986 43.2499 183.999 43.2499C185.013 43.2499 185.842 42.4214 185.842 41.4076C185.842 40.3938 185.013 39.5654 183.999 39.5654C182.986 39.5654 182.157 40.3938 182.157 41.4076Z" stroke="#323440" stroke-miterlimit="10" stroke-linecap="round" stroke-linejoin="round"/>
  <path d="M171.485 67.9405C171.485 68.9543 172.314 69.7828 173.328 69.7828C174.341 69.7828 175.17 68.9543 175.17 67.9405C175.17 66.9267 174.341 66.0983 173.328 66.0983C172.314 66.0983 171.485 66.9267 171.485 67.9405Z" stroke="#323440" stroke-width="2" stroke-miterlimit="10" stroke-linecap="round" stroke-linejoin="round"/>
  <path d="M182.245 2.95999L182.179 6.29568" stroke="#323440" stroke-miterlimit="10" stroke-linecap="round" stroke-linejoin="round"/>
  <path d="M182.124 9.35878L182.059 12.6836" stroke="#323440" stroke-miterlimit="10" stroke-linecap="round" stroke-linejoin="round"/>
  <path d="M177.295 7.7346L180.62 7.78911" stroke="#323440" stroke-miterlimit="10" stroke-linecap="round" stroke-linejoin="round"/>
  <path d="M183.684 7.85449L187.008 7.909" stroke="#323440" stroke-miterlimit="10" stroke-linecap="round" stroke-linejoin="round"/>
  <path d="M178.778 4.32254L181.089 6.72075" stroke="#323440" stroke-miterlimit="10" stroke-linecap="round" stroke-linejoin="round"/>
  <path d="M183.215 8.92276L185.526 11.321" stroke="#323440" stroke-miterlimit="10" stroke-linecap="round" stroke-linejoin="round"/>
  <path d="M178.658 11.1902L181.046 8.89014" stroke="#323440" stroke-miterlimit="10" stroke-linecap="round" stroke-linejoin="round"/>
  <path d="M183.258 6.76436L185.657 4.45335" stroke="#323440" stroke-miterlimit="10" stroke-linecap="round" stroke-linejoin="round"/>
  <path d="M187.641 87.1153L187.575 90.4401" stroke="#323440" stroke-miterlimit="10" stroke-linecap="round" stroke-linejoin="round"/>
  <path d="M187.52 93.5033L187.455 96.8281" stroke="#323440" stroke-miterlimit="10" stroke-linecap="round" stroke-linejoin="round"/>
  <path d="M182.691 91.879L186.016 91.9444" stroke="#323440" stroke-miterlimit="10" stroke-linecap="round" stroke-linejoin="round"/>
  <path d="M189.08 91.9989L192.404 92.0643" stroke="#323440" stroke-miterlimit="10" stroke-linecap="round" stroke-linejoin="round"/>
  <path d="M184.174 88.478L186.485 90.8653" stroke="#323440" stroke-miterlimit="10" stroke-linecap="round" stroke-linejoin="round"/>
  <path d="M188.611 93.0781L190.922 95.4763" stroke="#323440" stroke-miterlimit="10" stroke-linecap="round" stroke-linejoin="round"/>
  <path d="M184.043 95.3455L186.441 93.0345" stroke="#323440" stroke-miterlimit="10" stroke-linecap="round" stroke-linejoin="round"/>
  <path d="M188.654 90.9088L191.042 88.5978" stroke="#323440" stroke-miterlimit="10" stroke-linecap="round" stroke-linejoin="round"/>
  <path d="M103.376 52.2868C103.31 52.2868 103.234 52.265 103.179 52.2105L101.392 50.6516C101.315 50.5862 101.283 50.499 101.294 50.4009L102.493 39.7507C102.504 39.6962 102.525 39.6308 102.558 39.5872L126.704 11.9315C126.758 11.877 126.824 11.8334 126.9 11.8334C126.911 11.8334 126.911 11.8334 126.922 11.8334C126.987 11.8334 127.063 11.8552 127.118 11.9097L138.095 21.4916C138.215 21.6006 138.226 21.7859 138.117 21.9058L113.971 49.5615C113.928 49.6051 113.884 49.6379 113.819 49.6488L103.419 52.2759C103.419 52.2868 103.397 52.2868 103.376 52.2868ZM104.106 48.4497C103.844 48.4497 103.605 48.5587 103.43 48.7549C103.103 49.1255 103.147 49.6924 103.517 50.0194C103.681 50.1611 103.888 50.2374 104.106 50.2374C104.368 50.2374 104.607 50.1284 104.782 49.9322C104.934 49.7469 105.022 49.5179 105 49.2781C104.989 49.0383 104.88 48.8203 104.695 48.6677C104.531 48.526 104.324 48.4497 104.106 48.4497Z" fill="#6F98A9"/>
  <path d="M126.933 12.1276L137.91 21.7096L113.764 49.3653L103.365 51.9924L101.577 50.4336L102.776 39.7834L126.933 12.1276ZM104.106 50.5426C104.433 50.5426 104.771 50.4009 105 50.1393C105.436 49.6487 105.381 48.8965 104.891 48.4605C104.662 48.2643 104.389 48.1662 104.106 48.1662C103.779 48.1662 103.441 48.3079 103.212 48.5695C102.776 49.0601 102.831 49.8122 103.321 50.2483C103.55 50.4445 103.834 50.5426 104.106 50.5426ZM126.933 11.5499C126.922 11.5499 126.911 11.5499 126.889 11.5499C126.736 11.5608 126.595 11.6371 126.486 11.7461L102.34 39.4018C102.264 39.489 102.209 39.598 102.198 39.7179L100.999 50.3682C100.977 50.5535 101.054 50.7497 101.196 50.8696L102.983 52.4285C103.092 52.5266 103.223 52.5702 103.365 52.5702C103.408 52.5702 103.463 52.5593 103.507 52.5484L113.895 49.9212C114.015 49.8885 114.113 49.834 114.189 49.7359L138.335 22.0802C138.542 21.8404 138.52 21.4698 138.281 21.2517L127.303 11.6698C127.216 11.5935 127.074 11.5499 126.933 11.5499ZM104.106 49.9539C103.964 49.9539 103.823 49.8994 103.714 49.8013C103.463 49.5833 103.441 49.2018 103.659 48.951C103.779 48.8202 103.943 48.7439 104.117 48.7439C104.259 48.7439 104.4 48.7984 104.509 48.8965C104.629 49.0056 104.706 49.1473 104.717 49.3108C104.727 49.4743 104.673 49.6269 104.564 49.7468C104.455 49.8776 104.28 49.9539 104.106 49.9539Z" fill="#323440"/>
  <path d="M129.756 28.2175C129.276 28.2175 128.808 28.0431 128.437 27.727L122.256 22.331C121.428 21.6006 121.341 20.3361 122.06 19.5077L124.6 16.5971C124.981 16.1611 125.526 15.9104 126.104 15.9104C126.584 15.9104 127.053 16.0848 127.423 16.4009L133.604 21.7969C134.433 22.5272 134.52 23.7917 133.8 24.6202L131.249 27.5308C130.89 27.9668 130.334 28.2175 129.756 28.2175Z" fill="#3BACCD"/>
  <path d="M126.126 16.1938C126.529 16.1938 126.922 16.3355 127.249 16.6189L133.43 22.0149C134.138 22.6362 134.214 23.7154 133.593 24.424L131.053 27.3345C130.715 27.7161 130.236 27.9232 129.767 27.9232C129.364 27.9232 128.971 27.7815 128.644 27.498L122.463 22.1021C121.755 21.4807 121.678 20.4015 122.3 19.693L124.84 16.7824C125.178 16.39 125.646 16.1938 126.126 16.1938ZM126.126 15.6051C125.461 15.6051 124.829 15.8885 124.393 16.39L121.842 19.3005C121.013 20.2489 121.112 21.7096 122.06 22.5381L128.241 27.9341C128.655 28.2938 129.189 28.5009 129.745 28.5009C130.41 28.5009 131.042 28.2175 131.478 27.7161L134.029 24.8055C134.858 23.8571 134.759 22.3964 133.811 21.5679L127.63 16.172C127.216 15.8122 126.682 15.6051 126.126 15.6051Z" fill="#323440"/>
  <path d="M123.259 35.6628C122.78 35.6628 122.311 35.4884 121.94 35.1723L115.76 29.7763C114.931 29.0459 114.844 27.7814 115.563 26.9529L118.114 24.0424C118.496 23.6064 119.041 23.3556 119.619 23.3556C120.098 23.3556 120.567 23.5301 120.938 23.8462L127.118 29.2421C127.522 29.591 127.762 30.0815 127.794 30.6157C127.827 31.1498 127.653 31.6622 127.304 32.0655L124.764 34.976C124.382 35.4121 123.837 35.6628 123.259 35.6628Z" fill="#86BACF"/>
  <path d="M119.629 23.6391C120.033 23.6391 120.425 23.7808 120.752 24.0642L126.933 29.4602C127.641 30.0815 127.718 31.1607 127.096 31.8693L124.546 34.7798C124.208 35.1723 123.728 35.3685 123.259 35.3685C122.856 35.3685 122.463 35.2268 122.136 34.9433L115.956 29.5474C115.247 28.926 115.171 27.8468 115.792 27.1383L118.343 24.2277C118.67 23.8353 119.15 23.6391 119.629 23.6391ZM119.629 23.0504C118.964 23.0504 118.332 23.3338 117.896 23.8353L115.356 26.7458C114.528 27.6942 114.626 29.1549 115.574 29.9834L121.755 35.3794C122.169 35.7391 122.703 35.9462 123.259 35.9462C123.924 35.9462 124.556 35.6628 124.992 35.1614L127.543 32.2508C127.947 31.793 128.143 31.1934 128.099 30.583C128.056 29.9725 127.783 29.4166 127.314 29.0132L121.134 23.6173C120.719 23.2575 120.185 23.0504 119.629 23.0504Z" fill="#323440"/>
  <path d="M116.751 43.1082C116.271 43.1082 115.802 42.9338 115.432 42.6177L109.251 37.2217C108.422 36.4914 108.335 35.2269 109.055 34.3984L111.605 31.4878C111.987 31.0518 112.532 30.8011 113.11 30.8011C113.589 30.8011 114.058 30.9755 114.429 31.2916L120.61 36.6876C121.013 37.0364 121.253 37.527 121.285 38.0611C121.318 38.5952 121.144 39.1076 120.795 39.5109L118.255 42.4215C117.884 42.8575 117.328 43.1082 116.751 43.1082Z" fill="#B3C7D1"/>
  <path d="M113.121 31.0845C113.524 31.0845 113.917 31.2262 114.244 31.5096L120.425 36.9056C121.133 37.5269 121.209 38.6061 120.588 39.3147L118.048 42.2252C117.71 42.6177 117.231 42.8139 116.762 42.8139C116.358 42.8139 115.966 42.6722 115.639 42.3887L109.458 36.9928C108.75 36.3714 108.673 35.2922 109.295 34.5837L111.835 31.6731C112.173 31.2807 112.652 31.0845 113.121 31.0845ZM113.121 30.4958C112.456 30.4958 111.824 30.7792 111.388 31.2807L108.848 34.1912C108.019 35.1396 108.117 36.6003 109.066 37.4288L115.247 42.8248C115.661 43.1845 116.206 43.3916 116.751 43.3916C117.416 43.3916 118.048 43.1082 118.484 42.6068L121.035 39.6962C121.438 39.2384 121.635 38.6388 121.591 38.0284C121.547 37.4179 121.275 36.862 120.817 36.4586L114.636 31.0627C114.211 30.7029 113.677 30.4958 113.121 30.4958Z" fill="#323440"/>
  <path d="M104.095 52.1124C104.062 52.1124 104.041 52.1124 104.008 52.1015L101.73 51.4256C101.642 51.4038 101.566 51.3275 101.533 51.2403L98.1868 41.0588C98.165 41.0043 98.165 40.9389 98.1868 40.8844L108.608 5.68524C108.641 5.55442 108.761 5.47812 108.891 5.47812C108.924 5.47812 108.946 5.47812 108.979 5.48902L122.954 9.62048C123.03 9.64228 123.095 9.69678 123.128 9.76219C123.161 9.8276 123.172 9.9148 123.15 9.98021L112.729 45.1794C112.707 45.2339 112.674 45.2884 112.631 45.3211L104.28 52.047C104.226 52.0906 104.16 52.1124 104.095 52.1124ZM103.67 48.2098C103.278 48.2098 102.918 48.4714 102.809 48.853C102.743 49.0819 102.765 49.3217 102.885 49.5397C103.005 49.7469 103.19 49.8995 103.419 49.9758C103.506 49.9976 103.594 50.0085 103.67 50.0085C104.062 50.0085 104.422 49.7469 104.531 49.3653C104.597 49.1364 104.575 48.8966 104.455 48.6786C104.335 48.4714 104.15 48.3188 103.921 48.2425C103.833 48.2207 103.746 48.2098 103.67 48.2098Z" fill="#88BBCF"/>
  <path d="M108.892 5.76146L122.867 9.89292L112.445 45.0921L104.095 51.818L101.817 51.1421L98.4704 40.9606L108.892 5.76146ZM103.67 50.2918C104.182 50.2918 104.651 49.9539 104.815 49.4415C105 48.8093 104.64 48.1552 104.008 47.9699C103.899 47.9372 103.779 47.9154 103.67 47.9154C103.158 47.9154 102.689 48.2533 102.536 48.7657C102.351 49.3979 102.711 50.052 103.343 50.2373C103.441 50.2809 103.55 50.2918 103.67 50.2918ZM108.892 5.17281C108.641 5.17281 108.412 5.33632 108.336 5.58704L97.9144 40.7862C97.8817 40.8952 97.8817 41.026 97.9253 41.135L101.272 51.3165C101.326 51.5018 101.479 51.6435 101.664 51.698L103.943 52.3739C103.997 52.3848 104.052 52.3957 104.106 52.3957C104.237 52.3957 104.368 52.3521 104.477 52.2649L112.827 45.539C112.914 45.4627 112.99 45.3646 113.023 45.2447L123.444 10.0455C123.488 9.89292 123.466 9.7403 123.401 9.59859C123.325 9.46778 123.205 9.35877 123.052 9.31517L109.077 5.18371C109.001 5.18371 108.946 5.17281 108.892 5.17281ZM103.67 49.7141C103.616 49.7141 103.55 49.7032 103.496 49.6923C103.343 49.6487 103.212 49.5397 103.136 49.3979C103.06 49.2562 103.038 49.0927 103.092 48.9401C103.169 48.6894 103.409 48.5041 103.67 48.5041C103.725 48.5041 103.79 48.515 103.845 48.5259C103.997 48.5695 104.128 48.6785 104.204 48.8202C104.281 48.9619 104.302 49.1254 104.248 49.278C104.172 49.5288 103.932 49.7141 103.67 49.7141Z" fill="#323440"/>
  <path d="M117.329 19.3877C117.133 19.3877 116.947 19.355 116.762 19.3004L108.903 16.9785C108.39 16.8259 107.965 16.488 107.714 16.0193C107.464 15.5505 107.398 15.0055 107.551 14.4931L108.652 10.7868C108.903 9.93653 109.687 9.34789 110.57 9.34789C110.767 9.34789 110.952 9.38059 111.137 9.43509L118.997 11.757C119.509 11.9096 119.934 12.2475 120.185 12.7163C120.436 13.185 120.501 13.7301 120.349 14.2424L119.248 17.9487C118.997 18.7881 118.212 19.3877 117.329 19.3877Z" fill="#EF4135"/>
  <path d="M110.559 9.63138C110.723 9.63138 110.886 9.65319 111.05 9.69679L118.909 12.0187C119.814 12.2912 120.337 13.2396 120.065 14.1444L118.964 17.8507C118.746 18.592 118.059 19.0716 117.329 19.0716C117.165 19.0716 117.002 19.0498 116.838 19.0062L108.979 16.6843C108.074 16.4118 107.551 15.4634 107.823 14.5586L108.924 10.8523C109.142 10.111 109.829 9.63138 110.559 9.63138ZM110.559 9.05363C109.556 9.05363 108.652 9.72949 108.357 10.6997L107.256 14.406C107.082 14.9946 107.147 15.616 107.442 16.1502C107.736 16.6843 108.216 17.0767 108.804 17.2511L116.664 19.573C116.871 19.6385 117.1 19.6712 117.318 19.6712C118.332 19.6712 119.236 18.9953 119.52 18.0251L120.621 14.3188C120.795 13.7301 120.73 13.1088 120.436 12.5746C120.141 12.0405 119.662 11.6481 119.073 11.4736L111.213 9.15174C111.006 9.07544 110.788 9.05363 110.559 9.05363Z" fill="#323440"/>
  <path d="M114.528 28.8606C114.331 28.8606 114.146 28.8279 113.961 28.7734L106.101 26.4515C105.044 26.1354 104.433 25.0235 104.749 23.9661L105.85 20.2598C106.101 19.4095 106.886 18.8208 107.769 18.8208C107.965 18.8208 108.151 18.8535 108.336 18.9081L116.195 21.23C116.708 21.3826 117.133 21.7205 117.384 22.1892C117.634 22.658 117.7 23.203 117.547 23.7154L116.446 27.4217C116.195 28.272 115.411 28.8606 114.528 28.8606Z" fill="#EF464F"/>
  <path d="M107.758 19.1043C107.922 19.1043 108.085 19.1261 108.249 19.1697L116.108 21.4916C117.013 21.7641 117.525 22.7125 117.264 23.6173L116.163 27.3236C115.945 28.0648 115.258 28.5445 114.527 28.5445C114.364 28.5445 114.2 28.5227 114.048 28.4791L106.188 26.1572C105.283 25.8847 104.76 24.9363 105.033 24.0315L106.134 20.3252C106.341 19.5948 107.017 19.1043 107.758 19.1043ZM107.758 18.5265C106.755 18.5265 105.85 19.2024 105.556 20.1726L104.455 23.8789C104.095 25.0889 104.793 26.3752 106.003 26.724L113.863 29.0459C114.07 29.1113 114.299 29.144 114.517 29.144C115.53 29.144 116.424 28.4682 116.719 27.498L117.82 23.7917C117.994 23.203 117.929 22.5817 117.634 22.0475C117.34 21.5134 116.86 21.1209 116.272 20.9465L108.412 18.6246C108.194 18.5592 107.976 18.5265 107.758 18.5265Z" fill="#323440"/>
  <path d="M111.726 38.3335C111.53 38.3335 111.344 38.3008 111.159 38.2463L103.299 35.9244C102.242 35.6083 101.632 34.4964 101.948 33.439L103.049 29.7327C103.299 28.8933 104.084 28.2938 104.967 28.2938C105.163 28.2938 105.349 28.3265 105.534 28.381L113.394 30.7029C113.906 30.8555 114.331 31.1934 114.582 31.6622C114.833 32.1309 114.898 32.676 114.745 33.1883L113.644 36.8946C113.394 37.7449 112.598 38.3335 111.726 38.3335Z" fill="#F26354"/>
  <path d="M104.956 28.5881C105.12 28.5881 105.283 28.6099 105.447 28.6535L113.306 30.9754C114.211 31.248 114.734 32.1963 114.462 33.1011L113.361 36.8074C113.143 37.5487 112.456 38.0284 111.726 38.0284C111.562 38.0284 111.399 38.0066 111.235 37.9629L103.376 35.641C102.471 35.3685 101.948 34.4201 102.22 33.5154L103.321 29.809C103.539 29.0678 104.215 28.5881 104.956 28.5881ZM104.956 27.9995C103.953 27.9995 103.049 28.6753 102.754 29.6455L101.653 33.3518C101.294 34.5619 101.991 35.8482 103.201 36.197L111.061 38.5189C111.268 38.5843 111.497 38.617 111.715 38.617C112.718 38.617 113.622 37.9411 113.917 36.971L115.018 33.2646C115.192 32.676 115.127 32.0546 114.833 31.5205C114.538 30.9863 114.059 30.5939 113.47 30.4195L105.61 28.0976C105.392 28.0322 105.174 27.9995 104.956 27.9995Z" fill="#323440"/>
  <path d="M103.049 51.9161C102.972 51.9161 102.907 51.8943 102.852 51.8398L94.96 44.5798C94.9164 44.5361 94.8837 44.4816 94.8728 44.4271L86.8061 8.61753C86.7734 8.46491 86.8715 8.3014 87.0241 8.2687L101.239 5.06382C101.261 5.06382 101.283 5.05292 101.304 5.05292C101.435 5.05292 101.555 5.14013 101.588 5.28184L109.665 41.0914C109.676 41.146 109.676 41.2114 109.654 41.2659L105.643 51.2075C105.61 51.2947 105.534 51.3601 105.436 51.3819L103.125 51.9052C103.092 51.9161 103.07 51.9161 103.049 51.9161ZM103.659 48.0571C103.594 48.0571 103.528 48.0681 103.463 48.079C102.983 48.188 102.678 48.6676 102.787 49.1472C102.874 49.5506 103.245 49.8449 103.659 49.8449C103.724 49.8449 103.79 49.834 103.855 49.8231C104.335 49.7141 104.64 49.2345 104.531 48.7548C104.444 48.3515 104.073 48.0571 103.659 48.0571Z" fill="#B3C7D1"/>
  <path d="M101.305 5.35818L109.371 41.1678L105.36 51.1095L103.049 51.6327L95.1564 44.3727L87.0897 8.56306L101.305 5.35818ZM103.659 50.1393C103.746 50.1393 103.834 50.1284 103.921 50.1066C104.564 49.9648 104.967 49.3217 104.815 48.6894C104.695 48.1335 104.204 47.7629 103.659 47.7629C103.572 47.7629 103.485 47.7738 103.397 47.7956C102.754 47.9373 102.351 48.5804 102.504 49.2127C102.624 49.7686 103.114 50.1393 103.659 50.1393ZM101.305 4.76953C101.261 4.76953 101.217 4.76953 101.174 4.78043L86.9589 7.98531C86.6427 8.06162 86.4465 8.36684 86.5228 8.68297L94.5895 44.4926C94.6113 44.6125 94.6767 44.7106 94.7639 44.7978L102.656 52.0578C102.765 52.1559 102.907 52.2104 103.049 52.2104C103.092 52.2104 103.136 52.2104 103.179 52.1995L105.49 51.6763C105.676 51.6327 105.828 51.5019 105.905 51.3275L109.916 41.3858C109.96 41.2768 109.971 41.1569 109.949 41.037L101.871 5.22737C101.839 5.07476 101.741 4.94395 101.61 4.86764C101.523 4.80223 101.414 4.76953 101.305 4.76953ZM103.659 49.5615C103.376 49.5615 103.136 49.3653 103.07 49.0928C102.994 48.7657 103.201 48.4387 103.528 48.3733C103.572 48.3624 103.616 48.3624 103.659 48.3624C103.943 48.3624 104.182 48.5586 104.248 48.8312C104.324 49.1582 104.117 49.4852 103.79 49.5506C103.746 49.5506 103.703 49.5615 103.659 49.5615Z" fill="#323440"/>
  <path d="M92.1149 18.3957C91.1774 18.3957 90.3707 17.7525 90.1636 16.8368L89.3133 13.0651C89.1934 12.5419 89.2915 12.0077 89.575 11.5499C89.8584 11.1029 90.3053 10.7868 90.8286 10.6669L98.8299 8.86824C98.9716 8.83554 99.1242 8.81374 99.2768 8.81374C100.214 8.81374 101.021 9.45689 101.228 10.3726L102.078 14.1443C102.318 15.2235 101.642 16.2918 100.563 16.5425L92.5618 18.3412C92.4092 18.3848 92.2675 18.3957 92.1149 18.3957Z" fill="#004B64"/>
  <path d="M99.2661 9.10806C100.051 9.10806 100.749 9.64221 100.934 10.438L101.784 14.2097C101.991 15.1363 101.414 16.052 100.487 16.2591L92.4966 18.0686C92.3658 18.1013 92.2458 18.1122 92.115 18.1122C91.3302 18.1122 90.6216 17.5672 90.4472 16.7823L89.5969 13.0106C89.3898 12.084 89.9675 11.1683 90.8941 10.9612L98.8954 9.16256C99.0153 9.11896 99.1461 9.10806 99.2661 9.10806ZM99.2661 8.51941C99.0916 8.51941 98.9281 8.54121 98.7646 8.57391L90.7633 10.3726C90.1638 10.5034 89.6514 10.8631 89.3244 11.3864C88.9974 11.9096 88.8884 12.5201 89.0301 13.1196L89.8803 16.9022C90.1202 17.9596 91.0358 18.69 92.115 18.69C92.2895 18.69 92.453 18.6682 92.6165 18.6355L100.618 16.8368C101.217 16.706 101.73 16.3463 102.057 15.823C102.384 15.2998 102.493 14.6893 102.351 14.0898L101.501 10.3181C101.261 9.26067 100.345 8.51941 99.2661 8.51941Z" fill="#323440"/>
  <path d="M94.2843 28.0431C93.3468 28.0431 92.5402 27.3999 92.3331 26.4842L91.4828 22.7125C91.3629 22.1893 91.461 21.6551 91.7444 21.1973C92.0278 20.7503 92.4748 20.4342 92.998 20.3143L100.999 18.5156C101.141 18.4829 101.294 18.472 101.446 18.472C102.384 18.472 103.19 19.1152 103.398 20.0309L104.248 23.8026C104.488 24.8818 103.812 25.9501 102.733 26.2008L94.7313 27.9995C94.5896 28.0213 94.4369 28.0431 94.2843 28.0431Z" fill="#0D607E"/>
  <path d="M101.446 18.7446C102.231 18.7446 102.929 19.2787 103.114 20.0745L103.965 23.8462C104.172 24.7728 103.594 25.6885 102.667 25.8956L94.666 27.6943C94.5352 27.727 94.4153 27.7379 94.2845 27.7379C93.4996 27.7379 92.8019 27.1928 92.6166 26.4079L91.7664 22.6362C91.5592 21.7096 92.137 20.794 93.0636 20.5868L101.065 18.7882C101.185 18.7664 101.316 18.7446 101.446 18.7446ZM101.446 18.1668C101.272 18.1668 101.108 18.1886 100.945 18.2213L92.9328 20.02C92.3332 20.1508 91.8209 20.5105 91.4938 21.0338C91.1668 21.557 91.0578 22.1675 91.1995 22.767L92.0498 26.5387C92.2896 27.5961 93.2053 28.3265 94.2845 28.3265C94.4589 28.3265 94.6224 28.3047 94.7859 28.272L102.787 26.4733C104.019 26.1899 104.804 24.969 104.52 23.7263L103.67 19.9546C103.441 18.8972 102.515 18.1668 101.446 18.1668Z" fill="#323440"/>
  <path d="M96.4641 37.6795C95.5266 37.6795 94.72 37.0363 94.5129 36.1206L93.6626 32.3489C93.4228 31.2697 94.0986 30.2014 95.1778 29.9507L103.179 28.1521C103.321 28.1194 103.473 28.0975 103.626 28.0975C104.564 28.0975 105.37 28.7407 105.577 29.6564L106.428 33.4281C106.548 33.9514 106.449 34.4855 106.166 34.9433C105.883 35.3903 105.436 35.7064 104.912 35.8263L96.9111 37.625C96.7585 37.6686 96.6058 37.6795 96.4641 37.6795Z" fill="#13799D"/>
  <path d="M103.615 28.3918C104.4 28.3918 105.098 28.9369 105.283 29.7218L106.133 33.4935C106.341 34.4092 105.763 35.3357 104.836 35.5429L96.8349 37.3415C96.7041 37.3742 96.5842 37.3851 96.4534 37.3851C95.6685 37.3851 94.96 36.8401 94.7855 36.0552L93.9353 32.2835C93.7281 31.3569 94.3059 30.4412 95.2325 30.2341L103.234 28.4354C103.365 28.4027 103.484 28.3918 103.615 28.3918ZM103.615 27.8032C103.441 27.8032 103.277 27.825 103.114 27.8577L95.1126 29.6673C93.8808 29.9507 93.1068 31.1716 93.3793 32.4143L94.2296 36.186C94.4694 37.2434 95.3851 37.9738 96.4643 37.9738C96.6387 37.9738 96.8022 37.952 96.9657 37.9193L104.967 36.1206C105.567 35.9898 106.079 35.6301 106.406 35.1068C106.733 34.5836 106.842 33.9731 106.7 33.3736L105.85 29.6018C105.61 28.5445 104.694 27.8032 103.615 27.8032Z" fill="#323440"/>
  <path d="M104.259 141.478C97.5332 141.478 90.3931 140.181 90.3931 137.783C90.3931 135.374 97.5332 134.087 104.259 134.087C107.736 134.087 115.127 134.436 121.973 135.09C134.302 136.257 134.302 137.336 134.302 137.794C134.302 138.252 134.302 139.32 121.973 140.497C115.138 141.129 107.747 141.478 104.259 141.478Z" fill="#B66A4A"/>
  <path d="M104.259 134.371C111.759 134.371 134.008 135.897 134.008 137.783C134.008 139.669 111.759 141.195 104.259 141.195C96.7591 141.195 90.6873 139.669 90.6873 137.783C90.6873 135.897 96.77 134.371 104.259 134.371ZM104.259 133.782C97.2279 133.782 90.0986 135.156 90.0986 137.772C90.0986 140.388 97.217 141.762 104.259 141.762C107.747 141.762 115.149 141.413 122.006 140.759C134.596 139.56 134.596 138.437 134.596 137.772C134.596 137.096 134.596 135.973 122.006 134.785C115.149 134.131 107.747 133.782 104.259 133.782Z" fill="#323440"/>
  <path d="M99.6262 141.271C95.1677 140.868 90.3931 139.734 90.3931 137.772C90.3931 135.81 95.1568 134.676 99.6262 134.273C99.6371 134.273 99.648 134.273 99.648 134.273C99.7243 134.273 99.7897 134.295 99.8442 134.349C99.9096 134.404 99.9423 134.48 99.9423 134.567V140.977C99.9423 141.064 99.9096 141.14 99.8442 141.195C99.7897 141.238 99.7243 141.271 99.648 141.271C99.6371 141.271 99.6371 141.271 99.6262 141.271Z" fill="#4C6D79"/>
  <path d="M99.6479 134.567V140.977C94.4263 140.497 90.6873 139.244 90.6873 137.772C90.6873 136.3 94.4263 135.047 99.6479 134.567ZM99.6479 133.989C99.6261 133.989 99.6152 133.989 99.5934 133.989C97.3696 134.196 90.0986 135.058 90.0986 137.783C90.0986 140.497 97.3696 141.369 99.5934 141.565C99.6152 141.565 99.6261 141.565 99.6479 141.565C99.7896 141.565 99.9313 141.511 100.04 141.413C100.16 141.304 100.226 141.151 100.226 140.988V134.578C100.226 134.414 100.16 134.262 100.04 134.153C99.9313 134.044 99.7896 133.989 99.6479 133.989Z" fill="#323440"/>
  <path d="M87.6678 140.715C86.7631 140.715 85.9128 140.345 85.2042 139.636C85.1497 139.581 85.0298 139.429 84.8663 139.211C84.3975 138.589 83.133 136.933 82.4572 136.933C82.1084 136.933 81.9884 137.652 81.9557 138.077C81.9448 138.219 81.8358 138.328 81.6941 138.339C81.6832 138.339 81.6723 138.339 81.6614 138.339C81.5306 138.339 81.4216 138.252 81.378 138.132C81.051 137.085 81.2036 136.028 81.7922 135.221C82.4354 134.349 83.5255 133.869 84.8663 133.869C86.0327 133.869 87.3517 134.229 88.7797 134.927C89.7717 135.417 90.8945 136.671 90.8945 137.619C90.8945 139.298 89.4229 140.715 87.6678 140.715Z" fill="#F3B86E"/>
  <path d="M84.8662 134.175C85.9127 134.175 87.1772 134.48 88.6597 135.199C89.6081 135.668 90.611 136.845 90.611 137.63C90.611 139.189 89.2265 140.432 87.6786 140.432C86.9155 140.432 86.1198 140.137 85.4221 139.44C85.1496 139.167 83.4926 136.66 82.468 136.66C82.0646 136.66 81.7594 137.042 81.6722 138.066C81.0508 136.093 82.239 134.175 84.8662 134.175ZM84.8662 133.586C83.4272 133.586 82.2499 134.109 81.5523 135.058C80.9091 135.93 80.7347 137.085 81.0944 138.23C81.1707 138.48 81.3997 138.644 81.6504 138.644C81.6722 138.644 81.694 138.644 81.7158 138.644C81.9883 138.611 82.2063 138.393 82.239 138.121C82.3044 137.379 82.4789 137.238 82.4789 137.238C82.6533 137.249 83.2092 137.532 84.6372 139.407C84.8335 139.669 84.9207 139.778 84.997 139.854C85.76 140.617 86.6866 141.02 87.6677 141.02C89.5754 141.02 91.1887 139.472 91.1887 137.641C91.1887 136.562 89.9896 135.221 88.9104 134.687C87.4497 133.957 86.0871 133.586 84.8662 133.586Z" fill="#323440"/>
  <path d="M100.008 142.056C99.5606 142.056 99.1899 141.685 99.1899 141.238V134.316C99.1899 133.869 99.5606 133.499 100.008 133.499C100.454 133.499 100.825 133.869 100.825 134.316V141.238C100.825 141.685 100.465 142.056 100.008 142.056Z" fill="#6F98A9"/>
  <path d="M100.007 133.793C100.302 133.793 100.531 134.033 100.531 134.316V141.238C100.531 141.533 100.291 141.762 100.007 141.762C99.7131 141.762 99.4842 141.522 99.4842 141.238V134.316C99.4842 134.022 99.724 133.793 100.007 133.793ZM100.007 133.204C99.397 133.204 98.8955 133.706 98.8955 134.316V141.238C98.8955 141.849 99.397 142.35 100.007 142.35C100.618 142.35 101.119 141.849 101.119 141.238V134.316C101.119 133.706 100.618 133.204 100.007 133.204Z" fill="#323440"/>
  <path d="M91.2106 140.911C90.7637 140.911 90.3931 140.541 90.3931 140.094V135.461C90.3931 135.014 90.7637 134.643 91.2106 134.643C91.6576 134.643 92.0282 135.014 92.0282 135.461V140.094C92.0282 140.541 91.6576 140.911 91.2106 140.911Z" fill="#6F98A9"/>
  <path d="M91.2105 134.938C91.5049 134.938 91.7338 135.177 91.7338 135.461V140.094C91.7338 140.388 91.494 140.617 91.2105 140.617C90.9162 140.617 90.6873 140.377 90.6873 140.094V135.461C90.6873 135.167 90.9271 134.938 91.2105 134.938ZM91.2105 134.349C90.6001 134.349 90.0986 134.85 90.0986 135.461V140.094C90.0986 140.704 90.6001 141.206 91.2105 141.206C91.821 141.206 92.3224 140.704 92.3224 140.094V135.461C92.3224 134.85 91.821 134.349 91.2105 134.349Z" fill="#323440"/>
  <path d="M99.4296 124.135C99.2661 124.135 99.1353 124.004 99.1353 123.841V105.996C99.1353 105.832 99.2661 105.701 99.4296 105.701H125.559C125.723 105.701 125.853 105.832 125.853 105.996V123.841C125.853 124.004 125.723 124.135 125.559 124.135H99.4296Z" fill="#B3C7D1"/>
  <path d="M125.559 106.007V123.841H99.4295V105.996H125.559M125.559 105.418H99.4295C99.1024 105.418 98.8408 105.68 98.8408 106.007V123.841C98.8408 124.157 99.1024 124.418 99.4295 124.418H125.559C125.886 124.418 126.148 124.157 126.148 123.841V105.996C126.148 105.68 125.886 105.418 125.559 105.418Z" fill="#323440"/>
  <path d="M96.2904 124.135C96.1269 124.135 95.9961 124.004 95.9961 123.84V120.058C95.9961 119.894 96.1269 119.764 96.2904 119.764H128.71C128.873 119.764 129.004 119.894 129.004 120.058V123.84C129.004 124.004 128.873 124.135 128.71 124.135H96.2904Z" fill="#B3C7D1"/>
  <path d="M128.71 120.058V123.841H96.2903V120.058H128.71ZM128.71 119.48H96.2903C95.9633 119.48 95.7017 119.742 95.7017 120.058V123.841C95.7017 124.157 95.9633 124.418 96.2903 124.418H128.71C129.037 124.418 129.287 124.157 129.287 123.841V120.058C129.287 119.742 129.026 119.48 128.71 119.48Z" fill="#323440"/>
  <path d="M125.559 106.007H99.4297V114.924H125.559V106.007Z" fill="#90A0A9"/>
  <path d="M61.494 111.882C61.3305 111.882 61.1997 111.751 61.1997 111.588V105.102C61.1997 104.938 61.3305 104.807 61.494 104.807H163.494C163.658 104.807 163.789 104.938 163.789 105.102V111.588C163.789 111.751 163.658 111.882 163.494 111.882H61.494Z" fill="#B3C7D1"/>
  <path d="M163.494 105.102V111.588H61.4943V105.102H163.494ZM163.494 104.513H61.4943C61.1672 104.513 60.9165 104.775 60.9165 105.091V111.577C60.9165 111.904 61.1781 112.155 61.4943 112.155H163.494C163.821 112.155 164.083 111.893 164.083 111.577V105.091C164.083 104.775 163.821 104.513 163.494 104.513Z" fill="#323440"/>
  <path d="M163.494 105.102H61.4941V106.672H163.494V105.102Z" fill="#D6DFE4"/>
  <path d="M61.494 105.396C61.3305 105.396 61.1997 105.265 61.1997 105.102V43.8276C61.1997 43.6641 61.3305 43.5333 61.494 43.5333H163.494C163.658 43.5333 163.789 43.6641 163.789 43.8276V105.102C163.789 105.265 163.658 105.396 163.494 105.396H61.494Z" fill="#363F44"/>
  <path d="M163.494 43.8276V105.102H61.4943V43.8276H163.494ZM163.494 43.2499H61.4943C61.1672 43.2499 60.9165 43.5115 60.9165 43.8276V105.102C60.9165 105.429 61.1781 105.69 61.4943 105.69H163.494C163.821 105.69 164.083 105.429 164.083 105.102V43.8276C164.083 43.5115 163.821 43.2499 163.494 43.2499Z" fill="#323440"/>
  <path d="M161.619 45.4082H63.3799V105.015H161.619V45.4082Z" fill="#404A50"/>
  <path d="M68.8744 99.6296C68.7109 99.6296 68.5801 99.4988 68.5801 99.3352V50.3137C68.5801 50.1502 68.7109 50.0194 68.8744 50.0194H156.126C156.289 50.0194 156.42 50.1502 156.42 50.3137V99.3352C156.42 99.4988 156.289 99.6296 156.126 99.6296H68.8744Z" fill="white"/>
  <path d="M156.125 50.3136V99.3352H68.8743V50.3136H156.125ZM156.125 49.7359H68.8743C68.5473 49.7359 68.2856 49.9975 68.2856 50.3136V99.3352C68.2856 99.6513 68.5473 99.9129 68.8743 99.9129H156.125C156.442 99.9129 156.703 99.6513 156.703 99.3352V50.3136C156.714 49.9975 156.452 49.7359 156.125 49.7359Z" fill="#323440"/>
  <path d="M153.357 120.919C152.43 120.919 151.689 120.167 151.689 119.251V109.942C151.689 109.429 151.929 108.928 152.343 108.623L183.672 84.4336V74.7754H153.368C152.441 74.7754 151.7 74.0232 151.7 73.1075C151.7 72.181 152.452 71.4397 153.368 71.4397H185.34C186.267 71.4397 187.008 72.1919 187.008 73.1075V85.2512C187.008 85.7635 186.768 86.265 186.354 86.5702L155.025 110.759V119.251C155.025 120.167 154.283 120.919 153.357 120.919Z" fill="#404A50"/>
  <path d="M185.329 71.7231C186.092 71.7231 186.714 72.3445 186.714 73.1076V85.2512C186.714 85.6764 186.517 86.0797 186.179 86.3413L154.741 110.618V119.251C154.741 120.014 154.12 120.636 153.357 120.636C152.594 120.636 151.972 120.014 151.972 119.251V109.942C151.972 109.517 152.168 109.113 152.506 108.852L183.945 84.5754V74.4811H153.346C152.583 74.4811 151.961 73.8597 151.961 73.0967C151.961 72.3336 152.583 71.7122 153.346 71.7122H185.329M185.329 71.1345H153.357C152.278 71.1345 151.395 72.0175 151.395 73.0967C151.395 74.1759 152.278 75.0588 153.357 75.0588H183.367V84.281L152.158 108.383C151.678 108.754 151.395 109.331 151.395 109.942V119.251C151.395 120.33 152.278 121.213 153.357 121.213C154.436 121.213 155.319 120.33 155.319 119.251V110.912L186.528 86.8101C187.008 86.4394 187.291 85.8617 187.291 85.2512V73.0967C187.291 72.0175 186.408 71.1345 185.329 71.1345Z" fill="#323440"/>
  <path d="M125.537 80.3894C125.374 80.3894 125.243 80.2586 125.243 80.0951V66.0983C125.243 65.9347 125.374 65.8039 125.537 65.8039H181.165C181.329 65.8039 181.459 65.9347 181.459 66.0983V80.0951C181.459 80.2586 181.329 80.3894 181.165 80.3894H125.537Z" fill="#F3B86E"/>
  <path d="M181.165 66.0982V80.095H125.537V66.0982H181.165ZM181.165 65.5205H125.537C125.21 65.5205 124.949 65.7821 124.949 66.1091V80.1059C124.949 80.433 125.21 80.6946 125.537 80.6946H181.165C181.492 80.6946 181.754 80.433 181.754 80.1059V66.0982C181.754 65.7821 181.492 65.5205 181.165 65.5205Z" fill="#323440"/>
  <path d="M153.356 142.874C150.871 142.874 148.843 140.846 148.843 138.361V116.406C148.843 116.243 148.974 116.112 149.138 116.112H157.575C157.738 116.112 157.869 116.243 157.869 116.406V138.361C157.869 140.857 155.842 142.874 153.356 142.874Z" fill="#13799D"/>
  <path d="M157.575 116.406V138.361C157.575 140.693 155.689 142.579 153.356 142.579C151.024 142.579 149.138 140.693 149.138 138.361V116.406H157.575ZM157.575 115.828H149.138C148.822 115.828 148.56 116.09 148.56 116.417V138.372C148.56 141.02 150.718 143.168 153.356 143.168C155.995 143.168 158.164 141.01 158.164 138.372V116.417C158.153 116.09 157.891 115.828 157.575 115.828Z" fill="#323440"/>
  <path d="M153.357 140.345C152.114 140.345 151.111 139.331 151.111 138.099C151.111 136.867 152.125 135.853 153.357 135.853C154.589 135.853 155.603 136.867 155.603 138.099C155.603 139.331 154.6 140.345 153.357 140.345Z" fill="#00465E"/>
  <path d="M153.357 136.137C154.436 136.137 155.319 137.009 155.319 138.099C155.319 139.189 154.447 140.061 153.357 140.061C152.267 140.061 151.395 139.189 151.395 138.099C151.395 137.009 152.278 136.137 153.357 136.137ZM153.357 135.548C151.951 135.548 150.817 136.693 150.817 138.088C150.817 139.483 151.961 140.628 153.357 140.628C154.763 140.628 155.897 139.483 155.897 138.088C155.897 136.693 154.752 135.548 153.357 135.548Z" fill="#323440"/>
  <path d="M147.83 117.398C147.666 117.398 147.536 117.267 147.536 117.104V114.869C147.536 114.706 147.666 114.575 147.83 114.575H158.884C159.047 114.575 159.178 114.706 159.178 114.869V117.104C159.178 117.267 159.047 117.398 158.884 117.398H147.83Z" fill="#00465E"/>
  <path d="M158.883 114.869V117.104H147.83V114.869H158.883ZM158.883 114.291H147.83C147.503 114.291 147.241 114.553 147.241 114.88V117.115C147.241 117.431 147.503 117.692 147.83 117.692H158.883C159.2 117.692 159.461 117.431 159.461 117.115V114.88C159.461 114.553 159.2 114.291 158.883 114.291Z" fill="#323440"/>
  <path d="M51.2254 115.218C51.0619 115.218 50.9311 115.087 50.9311 114.924C50.9311 108.1 45.3825 102.551 38.5476 102.551C31.7236 102.551 26.1641 108.1 26.1641 114.924C26.1641 115.087 26.0333 115.218 25.8698 115.218H24.8451C24.6816 115.218 24.5508 115.087 24.5508 114.924C24.5508 107.206 30.8297 100.938 38.5367 100.938C46.2437 100.938 52.5226 107.217 52.5226 114.924C52.5226 115.087 52.3918 115.218 52.2283 115.218H51.2254Z" fill="#F3B86E"/>
  <path d="M38.5586 101.221C46.1129 101.221 52.261 107.369 52.261 114.924H51.2364C51.2364 107.936 45.557 102.257 38.5695 102.257C31.582 102.257 25.9026 107.936 25.9026 114.924H24.8779C24.8561 107.369 31.0042 101.221 38.5586 101.221ZM38.5586 100.643C30.6881 100.643 24.2783 107.053 24.2783 114.924C24.2783 115.251 24.5399 115.512 24.867 115.512H25.8917C26.2187 115.512 26.4694 115.251 26.4694 114.924C26.4694 108.263 31.8872 102.834 38.5586 102.834C45.219 102.834 50.6477 108.252 50.6477 114.924C50.6477 115.251 50.9093 115.512 51.2364 115.512H52.261C52.5881 115.512 52.8497 115.251 52.8497 114.924C52.8388 107.053 46.429 100.643 38.5586 100.643Z" fill="#323440"/>
  <path d="M29.5112 138.066C29.3695 138.066 29.2496 137.957 29.2278 137.816L25.9466 116.33C25.9357 116.243 25.9575 116.155 26.012 116.101C26.0665 116.036 26.1428 116.003 26.23 116.003H50.877C50.9642 116.003 51.0406 116.036 51.0951 116.101C51.1496 116.166 51.1714 116.254 51.1605 116.33L47.8793 137.816C47.8575 137.957 47.7376 138.066 47.5958 138.066H29.5112Z" fill="#13799D"/>
  <path d="M50.8768 116.297L47.5956 137.783H29.5109L26.2298 116.297H50.8768ZM50.8768 115.708H26.2298C26.0553 115.708 25.9027 115.785 25.7828 115.916C25.6738 116.046 25.6193 116.221 25.652 116.384L28.9332 137.87C28.9768 138.153 29.2166 138.361 29.5109 138.361H47.5956C47.879 138.361 48.1298 138.153 48.1734 137.87L51.4545 116.384C51.4763 116.221 51.4327 116.046 51.3237 115.916C51.2147 115.785 51.0512 115.708 50.8768 115.708Z" fill="#323440"/>
  <path d="M23.7333 116.591C23.5698 116.591 23.439 116.461 23.439 116.297V113.55C23.439 113.386 23.5698 113.256 23.7333 113.256H53.373C53.5365 113.256 53.6673 113.386 53.6673 113.55V116.297C53.6673 116.461 53.5365 116.591 53.373 116.591H23.7333Z" fill="#00465E"/>
  <path d="M53.3732 113.55V116.297H23.7335V113.55H53.3732ZM53.3732 112.972H23.7335C23.4065 112.972 23.1558 113.234 23.1558 113.55V116.297C23.1558 116.624 23.4174 116.886 23.7335 116.886H53.3732C53.7002 116.886 53.9618 116.624 53.9618 116.297V113.55C53.9618 113.234 53.7002 112.972 53.3732 112.972Z" fill="#323440"/>
  <path d="M71.6541 120.657C71.4906 120.657 71.3598 120.527 71.3598 120.363C71.3598 113.539 65.8112 107.98 58.9763 107.98C52.1523 107.98 46.5928 113.528 46.5928 120.363C46.5928 120.527 46.462 120.657 46.2985 120.657H45.2738C45.1103 120.657 44.9795 120.527 44.9795 120.363C44.9795 112.645 51.2584 106.377 58.9654 106.377C66.6724 106.377 72.9513 112.656 72.9513 120.363C72.9513 120.527 72.8205 120.657 72.657 120.657H71.6541Z" fill="#F3B86E"/>
  <path d="M58.9873 106.672C66.5416 106.672 72.6898 112.82 72.6898 120.374H71.6651C71.6651 113.386 65.9857 107.707 58.9982 107.707C52.0107 107.707 46.3313 113.386 46.3313 120.374H45.3066C45.2848 112.82 51.4329 106.672 58.9873 106.672ZM58.9873 106.094C51.1168 106.094 44.707 112.504 44.707 120.374C44.707 120.701 44.9687 120.963 45.2957 120.963H46.3204C46.6474 120.963 46.909 120.701 46.909 120.374C46.909 113.714 52.3268 108.285 58.9982 108.285C65.6696 108.285 71.0873 113.703 71.0873 120.374C71.0873 120.701 71.3489 120.963 71.676 120.963H72.7007C73.0277 120.963 73.2784 120.701 73.2784 120.374C73.2675 112.493 66.8578 106.094 58.9873 106.094Z" fill="#323440"/>
  <path d="M49.9394 143.517C49.7977 143.517 49.6778 143.408 49.656 143.266L46.3748 121.78C46.3639 121.693 46.3857 121.606 46.4402 121.551C46.4947 121.486 46.571 121.453 46.6582 121.453H71.3053C71.3925 121.453 71.4688 121.486 71.5233 121.551C71.5778 121.617 71.5996 121.704 71.5887 121.78L68.3075 143.266C68.2857 143.408 68.1658 143.517 68.0241 143.517H49.9394Z" fill="#13799D"/>
  <path d="M71.305 121.737L68.0238 143.222H49.9392L46.658 121.737H71.305ZM71.305 121.159H46.658C46.4836 121.159 46.3309 121.235 46.211 121.366C46.102 121.497 46.0475 121.671 46.0802 121.835L49.3614 143.321C49.405 143.604 49.6448 143.811 49.9392 143.811H68.0238C68.3073 143.811 68.558 143.604 68.6016 143.321L71.8828 121.835C71.9046 121.671 71.861 121.497 71.752 121.366C71.6429 121.235 71.4794 121.159 71.305 121.159Z" fill="#323440"/>
  <path d="M44.162 122.031C43.9985 122.031 43.8677 121.9 43.8677 121.737V118.99C43.8677 118.826 43.9985 118.695 44.162 118.695H73.8017C73.9652 118.695 74.096 118.826 74.096 118.99V121.737C74.096 121.9 73.9652 122.031 73.8017 122.031H44.162Z" fill="#00465E"/>
  <path d="M73.8016 119.001V121.748H44.1619V119.001H73.8016ZM73.8016 118.412H44.1619C43.8349 118.412 43.5732 118.674 43.5732 119.001V121.748C43.5732 122.064 43.8349 122.325 44.1619 122.325H73.8016C74.1286 122.325 74.3902 122.064 74.3902 121.748V119.001C74.3902 118.674 74.1286 118.412 73.8016 118.412Z" fill="#323440"/>
  <path d="M63.3697 81.5884C63.2933 81.5884 63.2279 81.5448 63.1952 81.4903C63.1516 81.4249 63.1625 81.3268 63.2061 81.2614L67.1632 75.9744C67.185 75.9526 67.1959 75.9308 67.2286 75.9199L69.8448 74.4156C69.8775 74.3938 69.9102 74.3938 69.9429 74.3938C70.0083 74.3938 70.0846 74.4265 70.1173 74.4919L72.7227 79.0267C72.7445 79.0703 72.7554 79.1248 72.7445 79.1793C72.7336 79.2338 72.7009 79.2774 72.6464 79.2992L70.0301 80.8036C70.0083 80.8145 69.9756 80.8254 69.9538 80.8254C69.9538 80.8363 63.3697 81.5884 63.3697 81.5884Z" fill="#FAA433"/>
  <path d="M69.9319 74.59L72.5372 79.1248L69.921 80.6291L63.3586 81.3813L67.3157 76.0944L69.9319 74.59ZM69.9319 74.1867C69.8665 74.1867 69.7902 74.2085 69.7248 74.2412L67.1086 75.7455C67.065 75.7782 67.0214 75.8109 66.9887 75.8545L63.0316 81.1415C62.9335 81.2723 62.9226 81.4467 63.0098 81.5884C63.0861 81.7192 63.2169 81.7956 63.3586 81.7956C63.3695 81.7956 63.3913 81.7956 63.4022 81.7956L69.9646 81.0434C70.0191 81.0325 70.0736 81.0216 70.1172 80.9889L72.7335 79.4845C72.8316 79.43 72.897 79.3428 72.9188 79.2338C72.9515 79.1248 72.9297 79.0158 72.8752 78.9286L70.2698 74.3938C70.2153 74.263 70.0736 74.1867 69.9319 74.1867Z" fill="#323440"/>
  <path d="M64.7104 79.5935L63.3696 81.3813L65.5825 81.1306L64.7104 79.5935Z" fill="#5D2A00"/>
  <path d="M105.186 60.1572C104.183 60.1572 103.256 59.623 102.755 58.7509C101.992 57.4101 102.45 55.6987 103.791 54.9356C104.216 54.6958 104.695 54.565 105.186 54.565C106.189 54.565 107.115 55.0991 107.617 55.9712C108.391 57.312 107.922 59.0235 106.581 59.7865C106.145 60.0263 105.666 60.1572 105.186 60.1572Z" fill="#F26354"/>
  <path d="M105.175 54.7612C106.069 54.7612 106.941 55.23 107.42 56.0584C108.14 57.3011 107.704 58.8818 106.461 59.6012C106.058 59.8302 105.611 59.9501 105.175 59.9501C104.281 59.9501 103.409 59.4813 102.929 58.6529C102.221 57.4101 102.646 55.8295 103.888 55.11C104.292 54.8702 104.739 54.7612 105.175 54.7612ZM105.175 54.3579C104.652 54.3579 104.139 54.4996 103.681 54.7612C102.242 55.5897 101.752 57.4211 102.58 58.86C103.114 59.7866 104.106 60.3643 105.186 60.3643C105.709 60.3643 106.221 60.2226 106.679 59.961C108.118 59.1325 108.609 57.3011 107.78 55.8622C107.246 54.9356 106.254 54.3579 105.175 54.3579Z" fill="#323440"/>
  <path d="M70.6402 80.4002C70.6183 80.4002 70.6074 80.4002 70.5856 80.3893C70.5311 80.3784 70.4875 80.3457 70.4657 80.2912L67.8822 75.8C67.8277 75.7019 67.8604 75.582 67.9585 75.5166L100.618 56.7452C100.65 56.7234 100.683 56.7234 100.716 56.7234C100.781 56.7234 100.858 56.7561 100.89 56.8215L103.474 61.3127C103.496 61.3563 103.507 61.4108 103.496 61.4653C103.485 61.5198 103.452 61.5634 103.397 61.5852L70.7383 80.3675C70.7056 80.3893 70.6729 80.4002 70.6402 80.4002Z" fill="#FAA433"/>
  <path d="M100.716 56.9304L103.3 61.4216L70.6403 80.193L68.0568 75.7019L100.716 56.9304ZM100.716 56.5271C100.651 56.5271 100.574 56.5489 100.509 56.5816L67.8497 75.3421C67.6534 75.4511 67.588 75.7019 67.697 75.8981L70.2806 80.3893C70.3351 80.4874 70.4223 80.5528 70.5313 80.5746C70.564 80.5855 70.5967 80.5855 70.6403 80.5855C70.7057 80.5855 70.782 80.5637 70.8474 80.531L103.507 61.7814C103.605 61.7269 103.67 61.6396 103.692 61.5306C103.725 61.4216 103.703 61.3126 103.648 61.2254L101.065 56.7342C100.989 56.5925 100.858 56.5271 100.716 56.5271Z" fill="#323440"/>
  <path d="M101.444 58.2169L68.79 76.9805L69.8979 78.9085L102.552 60.1449L101.444 58.2169Z" fill="#C46626"/>
  <path d="M103.299 61.6288C103.234 61.6288 103.158 61.5961 103.125 61.5307L100.541 57.0395C100.487 56.9414 100.52 56.8215 100.618 56.767L103.234 55.2627C103.267 55.2409 103.299 55.2409 103.332 55.2409C103.354 55.2409 103.365 55.2409 103.387 55.2518C103.441 55.2627 103.485 55.2954 103.506 55.3499L106.09 59.8411C106.112 59.8847 106.123 59.9392 106.112 59.9937C106.101 60.0482 106.068 60.0918 106.014 60.1136L103.397 61.6179C103.365 61.6179 103.332 61.6288 103.299 61.6288Z" fill="#B3C7D1"/>
  <path d="M103.332 55.4262L105.916 59.9174L103.299 61.4217L100.716 56.9305L103.332 55.4262ZM103.332 55.0119C103.267 55.0119 103.19 55.0337 103.125 55.0664L100.509 56.5708C100.313 56.6798 100.247 56.9305 100.356 57.1267L102.94 61.6179C103.016 61.7487 103.147 61.825 103.289 61.825C103.354 61.825 103.43 61.8032 103.496 61.7705L106.112 60.2662C106.21 60.2117 106.275 60.1245 106.297 60.0155C106.33 59.9065 106.308 59.7975 106.254 59.7102L103.67 55.2191C103.616 55.1209 103.528 55.0555 103.419 55.0337C103.408 55.0228 103.376 55.0119 103.332 55.0119Z" fill="#323440"/>
  <path d="M104.118 61.16C104.096 61.16 104.085 61.16 104.063 61.1491C104.009 61.1382 103.965 61.1055 103.943 61.051L101.36 56.5598C101.338 56.5162 101.327 56.4617 101.338 56.4072C101.349 56.3527 101.381 56.3091 101.436 56.2873L102.428 55.7205C102.461 55.6986 102.493 55.6987 102.526 55.6987C102.591 55.6987 102.668 55.7314 102.7 55.7968L105.284 60.2879C105.338 60.3861 105.306 60.506 105.208 60.5605L104.216 61.1273C104.183 61.1491 104.15 61.16 104.118 61.16Z" fill="#66737A"/>
  <path d="M102.526 55.8949L105.109 60.3861L104.117 60.953L101.534 56.4618L102.526 55.8949ZM102.526 55.4807C102.46 55.4807 102.384 55.5025 102.319 55.5352L101.327 56.102C101.229 56.1565 101.163 56.2437 101.141 56.3528C101.109 56.4618 101.13 56.5708 101.185 56.658L103.768 61.1492C103.823 61.2473 103.91 61.3127 104.019 61.3345C104.052 61.3454 104.085 61.3454 104.128 61.3454C104.194 61.3454 104.27 61.3236 104.335 61.2909L105.327 60.724C105.524 60.615 105.589 60.3643 105.48 60.1681L102.896 55.6769C102.798 55.557 102.667 55.4807 102.526 55.4807Z" fill="#323440"/>
</svg>