    <svg xmlns="http://www.w3.org/2000/svg" width="226" height="220" viewBox="0 0 226 220" fill="none">
  <path d="M206.112 180.495C206.293 179.004 204.982 177.738 203.581 177.241C202.18 176.698 200.643 176.653 199.287 176.111C197.479 175.342 196.033 173.715 194.089 173.263C191.467 172.676 188.981 174.393 186.857 176.02C185.546 177.015 184.281 178.009 182.97 179.004C181.93 179.817 180.891 180.631 179.851 181.444C177.953 182.891 176.009 184.428 174.879 186.552L212.305 186.01C212.214 182.936 209.186 180.224 206.112 180.495Z" fill="#EBEBEB"/>
  <path d="M191.648 181.128C191.332 181.354 191.332 181.896 191.648 182.122C191.964 182.348 192.462 182.168 192.552 181.806C192.688 181.399 192.326 180.676 191.648 181.128Z" fill="#E0E0E0"/>
  <path d="M186.812 178.326C186.495 178.552 186.495 179.094 186.812 179.32C187.128 179.546 187.625 179.365 187.716 179.004C187.806 178.597 187.49 177.919 186.812 178.326Z" fill="#E0E0E0"/>
  <path d="M190.156 181.038C190.021 181.128 189.976 181.399 190.156 181.535C190.292 181.625 190.563 181.535 190.608 181.354C190.654 181.173 190.518 180.812 190.156 181.038Z" fill="#E0E0E0"/>
  <path d="M185.501 180.902C185.365 180.992 185.32 181.264 185.501 181.399C185.637 181.49 185.908 181.399 185.953 181.218C185.998 181.038 185.817 180.676 185.501 180.902Z" fill="#E0E0E0"/>
  <path d="M189.162 177.422C189.027 177.512 188.981 177.783 189.162 177.919C189.298 178.009 189.569 177.919 189.614 177.738C189.705 177.557 189.524 177.241 189.162 177.422Z" fill="#E0E0E0"/>
  <path d="M206.067 183.343C206.021 183.388 205.705 182.891 204.891 182.439C204.123 181.987 202.767 181.58 201.411 181.987C201.366 181.987 201.321 182.032 201.275 182.032L201.095 182.077V181.896C201.14 181.218 200.869 180.586 200.552 180.134C200.191 179.636 199.739 179.365 199.332 179.184C198.518 178.868 197.931 178.958 197.931 178.913C197.931 178.913 198.066 178.868 198.337 178.868C198.609 178.868 198.97 178.868 199.422 179.049C199.874 179.23 200.371 179.501 200.733 179.998C201.095 180.495 201.366 181.173 201.366 181.896L201.23 181.761C201.275 181.761 201.321 181.716 201.411 181.716C202.857 181.309 204.259 181.716 205.027 182.258C205.434 182.529 205.705 182.8 205.886 182.981C206.021 183.207 206.067 183.343 206.067 183.343Z" fill="#E0E0E0"/>
  <path d="M196.756 175.659C196.711 175.704 196.394 175.388 195.761 175.026C195.129 174.664 194.225 174.258 193.14 174.167C192.055 174.077 191.061 174.258 190.383 174.484C189.705 174.71 189.298 174.936 189.298 174.936C189.298 174.936 189.659 174.619 190.337 174.348C191.015 174.077 192.055 173.851 193.185 173.941C194.315 174.077 195.264 174.484 195.852 174.89C196.485 175.297 196.756 175.614 196.756 175.659Z" fill="white"/>
  <path d="M199.468 177.015C199.468 177.06 199.106 177.105 198.744 176.924C198.383 176.744 198.157 176.472 198.202 176.427C198.247 176.382 198.518 176.563 198.835 176.698C199.151 176.879 199.468 176.97 199.468 177.015Z" fill="white"/>
  <path d="M211.084 184.111C211.039 184.111 210.994 183.885 210.768 183.478C210.587 183.117 210.225 182.62 209.728 182.258C209.231 181.896 208.643 181.716 208.237 181.625C207.83 181.535 207.559 181.535 207.559 181.49C207.559 181.444 207.83 181.399 208.282 181.444C208.734 181.49 209.321 181.67 209.864 182.077C210.406 182.484 210.768 183.026 210.903 183.388C211.084 183.84 211.129 184.111 211.084 184.111Z" fill="white"/>
  <path d="M214.067 187.863H194.767H194.179H174.879C174.879 187.863 176.145 203.683 194.179 204.361C194.27 204.361 194.36 204.361 194.496 204.361C194.586 204.361 194.677 204.361 194.812 204.361C212.802 203.683 214.067 187.863 214.067 187.863Z" fill="#E0E0E0"/>
  <path d="M200.326 203.186H189.117V204.813H200.326V203.186Z" fill="#E0E0E0"/>
  <path d="M215.423 188.631H174.02C173.297 188.631 172.754 188.044 172.754 187.366V186.688C172.754 185.964 173.342 185.422 174.02 185.422H215.378C216.101 185.422 216.644 186.01 216.644 186.688V187.366C216.689 188.089 216.101 188.631 215.423 188.631Z" fill="#E0E0E0"/>
  <path d="M214.881 188.541C214.881 188.586 205.931 188.676 194.857 188.676C183.783 188.676 174.833 188.631 174.833 188.541C174.833 188.45 183.783 188.405 194.857 188.405C205.886 188.405 214.881 188.45 214.881 188.541Z" fill="#EBEBEB"/>
  <path d="M200.417 203.728C200.417 203.773 197.886 203.864 194.722 203.864C191.603 203.864 189.026 203.818 189.026 203.728C189.026 203.638 191.558 203.592 194.722 203.592C197.84 203.592 200.417 203.638 200.417 203.728Z" fill="#EBEBEB"/>
  <path d="M212.485 193.151C212.485 193.196 204.394 193.287 194.405 193.287C184.416 193.287 176.325 193.242 176.325 193.151C176.325 193.106 184.416 193.016 194.405 193.016C204.394 193.061 212.485 193.106 212.485 193.151Z" fill="white"/>
  <path d="M211.943 194.507C211.943 194.552 204.123 194.643 194.496 194.733C184.868 194.778 177.048 194.778 177.048 194.688C177.048 194.643 184.868 194.552 194.496 194.462C204.123 194.462 211.943 194.462 211.943 194.507Z" fill="#EBEBEB"/>
  <path d="M211.084 196.134C211.084 196.18 203.671 196.27 194.496 196.27C185.32 196.27 177.907 196.225 177.907 196.134C177.907 196.044 185.32 195.999 194.496 195.999C203.671 196.044 211.084 196.089 211.084 196.134Z" fill="white"/>
  <path d="M41.9905 179.772C42.1713 178.28 40.8605 177.015 39.4593 176.518C38.0581 175.975 36.5213 175.93 35.1653 175.388C33.3573 174.619 31.9109 172.992 29.9673 172.54C27.3457 171.952 24.8597 173.67 22.7353 175.297C21.4245 176.292 20.1589 177.286 18.8481 178.28C17.8085 179.094 16.7689 179.908 15.7293 180.721C13.8309 182.168 11.8873 183.704 10.7573 185.829L48.1829 185.286C48.0925 182.213 45.0641 179.501 41.9905 179.772Z" fill="#EBEBEB"/>
  <path d="M27.5718 180.36C27.2554 180.586 27.2554 181.128 27.5718 181.354C27.8882 181.58 28.3854 181.399 28.4758 181.038C28.5662 180.631 28.2498 179.953 27.5718 180.36Z" fill="#E0E0E0"/>
  <path d="M22.6899 177.602C22.3735 177.828 22.3735 178.371 22.6899 178.597C23.0063 178.823 23.5035 178.642 23.5939 178.28C23.7295 177.874 23.3679 177.196 22.6899 177.602Z" fill="#E0E0E0"/>
  <path d="M26.0348 180.314C25.8992 180.405 25.854 180.676 26.0348 180.812C26.1704 180.902 26.4416 180.812 26.4868 180.631C26.5772 180.45 26.3964 180.088 26.0348 180.314Z" fill="#E0E0E0"/>
  <path d="M21.3795 180.179C21.2439 180.269 21.1987 180.54 21.3795 180.676C21.5151 180.766 21.7863 180.676 21.8315 180.495C21.8767 180.314 21.6959 179.953 21.3795 180.179Z" fill="#E0E0E0"/>
  <path d="M25.0856 176.698C24.95 176.789 24.9048 177.06 25.0856 177.196C25.2212 177.286 25.4924 177.196 25.5376 177.015C25.5828 176.834 25.402 176.472 25.0856 176.698Z" fill="#E0E0E0"/>
  <path d="M41.9456 182.62C41.9004 182.665 41.584 182.168 40.7704 181.716C40.002 181.264 38.646 180.857 37.29 181.264C37.2448 181.264 37.1996 181.309 37.1544 181.309L36.9736 181.354V181.173C37.0188 180.495 36.7476 179.862 36.4312 179.41C36.0696 178.913 35.6176 178.642 35.2108 178.461C34.3972 178.145 33.8096 178.235 33.8096 178.19C33.8096 178.19 33.9452 178.145 34.2164 178.145C34.4876 178.145 34.8492 178.145 35.3012 178.326C35.7532 178.506 36.2504 178.778 36.612 179.275C36.9736 179.772 37.2448 180.45 37.2448 181.173L37.1092 181.038C37.1544 181.038 37.1996 180.992 37.29 180.992C38.7364 180.586 40.1376 180.992 40.906 181.535C41.3128 181.806 41.584 182.077 41.7648 182.258C41.9004 182.484 41.9908 182.574 41.9456 182.62Z" fill="#E0E0E0"/>
  <path d="M32.6343 174.936C32.5891 174.981 32.2727 174.664 31.6399 174.303C31.0071 173.941 30.1031 173.534 29.0183 173.444C27.9335 173.354 26.9391 173.534 26.2611 173.76C25.5831 173.986 25.1763 174.212 25.1763 174.212C25.1763 174.212 25.5379 173.896 26.2159 173.625C26.8939 173.354 27.9335 173.128 29.0635 173.218C30.1935 173.354 31.1427 173.76 31.7303 174.167C32.3631 174.529 32.6343 174.89 32.6343 174.936Z" fill="white"/>
  <path d="M35.346 176.292C35.346 176.337 34.9844 176.382 34.6228 176.201C34.2612 176.02 34.0352 175.749 34.0804 175.704C34.1256 175.659 34.3968 175.84 34.7132 175.975C35.0296 176.156 35.346 176.246 35.346 176.292Z" fill="white"/>
  <path d="M46.9626 183.388C46.9174 183.388 46.8722 183.162 46.6462 182.755C46.4654 182.394 46.1038 181.896 45.6066 181.535C45.1094 181.173 44.5218 180.992 44.115 180.902C43.7082 180.812 43.437 180.812 43.437 180.766C43.437 180.721 43.7082 180.676 44.1602 180.721C44.6122 180.766 45.1998 180.947 45.7422 181.354C46.2846 181.761 46.6462 182.303 46.7818 182.665C46.9626 183.117 47.0078 183.388 46.9626 183.388Z" fill="white"/>
  <path d="M49.9457 187.14H30.6453H30.0577H10.7573C10.7573 187.14 12.0229 202.96 30.0577 203.638C30.1481 203.638 30.2385 203.638 30.3741 203.638C30.4645 203.638 30.5549 203.638 30.6905 203.638C48.6801 202.96 49.9457 187.14 49.9457 187.14Z" fill="#E0E0E0"/>
  <path d="M36.2052 202.462H24.9956V204.09H36.2052V202.462Z" fill="#E0E0E0"/>
  <path d="M51.3018 187.908H9.94382C9.22062 187.908 8.67822 187.32 8.67822 186.642V185.964C8.67822 185.241 9.26582 184.699 9.94382 184.699H51.3018C52.025 184.699 52.5674 185.286 52.5674 185.964V186.642C52.5674 187.32 52.025 187.908 51.3018 187.908Z" fill="#E0E0E0"/>
  <path d="M50.7596 187.818C50.7596 187.863 41.81 187.953 30.736 187.953C19.662 187.953 10.7124 187.908 10.7124 187.818C10.7124 187.727 19.662 187.682 30.736 187.682C41.81 187.682 50.7596 187.727 50.7596 187.818Z" fill="#EBEBEB"/>
  <path d="M36.2952 203.005C36.2952 203.05 33.764 203.14 30.6 203.14C27.4812 203.14 24.9048 203.095 24.9048 203.005C24.9048 202.96 27.436 202.869 30.6 202.869C33.764 202.869 36.2952 202.914 36.2952 203.005Z" fill="#EBEBEB"/>
  <path d="M48.409 192.428C48.409 192.473 40.3182 192.564 30.329 192.564C20.3398 192.564 12.249 192.518 12.249 192.428C12.249 192.338 20.3398 192.292 30.329 192.292C40.3182 192.292 48.409 192.383 48.409 192.428Z" fill="white"/>
  <path d="M47.8217 193.784C47.8217 193.829 40.002 193.92 30.3744 194.01C20.7468 194.055 12.9272 194.055 12.9272 193.965C12.9272 193.92 20.7468 193.829 30.3744 193.739C40.0472 193.739 47.8217 193.739 47.8217 193.784Z" fill="#EBEBEB"/>
  <path d="M46.9624 195.411C46.9624 195.456 39.5496 195.547 30.374 195.547C21.1984 195.547 13.7856 195.502 13.7856 195.411C13.7856 195.321 21.1984 195.276 30.374 195.276C39.5496 195.276 46.9624 195.366 46.9624 195.411Z" fill="white"/>
  <path d="M200.372 149.488C201.004 152.019 199.92 154.957 197.75 156.449C195.58 157.94 192.462 157.895 190.337 156.358C189.162 157.353 187.49 157.76 185.953 157.308C184.461 156.901 183.196 155.68 182.744 154.234C180.167 155.454 176.732 154.415 175.24 152.019C173.749 149.578 174.382 146.098 176.596 144.335C175.738 143.702 175.24 142.618 175.286 141.578C175.331 140.538 175.964 139.499 176.913 139.002C175.466 136.922 175.421 133.984 176.732 131.86C178.088 129.736 180.71 128.47 183.241 128.877C183.512 126.888 184.913 125.08 186.812 124.312C188.71 123.588 190.97 123.95 192.507 125.261C193.682 124.447 195.219 124.221 196.62 124.673C197.976 125.125 199.106 126.255 199.558 127.611C201.954 126.798 204.846 127.702 206.383 129.736C207.92 131.77 207.965 134.753 206.564 136.877C206.564 136.877 212.395 141.216 208.282 147.409C204.892 152.381 200.372 149.488 200.372 149.488Z" fill="#F5F5F5"/>
  <path d="M43.392 113.283C42.5784 112.062 40.906 111.43 39.55 111.972C40.2732 110.526 40.1376 108.718 39.1432 107.407C38.194 106.141 36.4312 105.463 34.8492 105.78C35.1656 102.977 32.996 100.13 30.2388 99.6324C27.5268 99.1352 24.5888 100.988 23.8204 103.61C20.6112 103.068 17.1308 104.424 15.2324 107.045C13.108 109.983 13.1532 114.322 15.2776 117.215C12.9272 116.673 10.3508 118.21 9.53716 120.47C8.67836 122.73 9.49196 125.442 11.3452 126.978C13.1532 128.56 15.82 129.012 18.1252 128.334C18.306 131.815 21.244 134.888 24.7244 135.25C28.2048 135.612 31.6852 133.126 32.544 129.781C35.3464 131.544 39.5048 130.64 41.3128 127.837C43.1208 125.035 42.2168 120.876 39.4144 119.068C40.8608 119.204 42.3976 118.571 43.2564 117.351C44.07 116.221 44.2056 114.503 43.392 113.283Z" fill="#F5F5F5"/>
  <path d="M45.3357 37.4372C45.7425 36.3976 45.3809 35.0416 44.4317 34.4088C45.6521 34.228 46.7369 33.2788 47.1437 32.1036C47.5053 30.9284 47.1437 29.5272 46.2397 28.6684C48.1381 27.5836 48.9969 24.962 48.0477 22.9732C47.1437 21.0296 44.6577 20.0352 42.6237 20.7132C41.5389 18.4532 39.0981 16.8712 36.6121 16.826C33.8097 16.826 31.0977 18.7696 30.1937 21.4364C29.4705 19.7188 27.3913 18.7696 25.5833 19.2668C23.7753 19.764 22.4645 21.4816 22.2837 23.3348C22.1029 25.188 23.0069 27.0412 24.4533 28.2164C22.3289 29.934 21.6961 33.1884 23.0521 35.4936C24.3629 37.844 27.5269 38.9288 30.0129 37.9796C30.1485 40.556 32.5893 42.7708 35.1657 42.6352C37.7421 42.4996 39.9569 40.0588 39.8665 37.4824C40.4541 38.4768 41.5389 39.1548 42.6689 39.1548C43.7989 39.2 44.9289 38.4768 45.3357 37.4372Z" fill="#F5F5F5"/>
  <path d="M195.219 35.4936C195.987 35.1772 196.484 34.3636 196.349 33.55C197.027 34.0924 198.066 34.228 198.88 33.8212C199.694 33.4596 200.236 32.5556 200.236 31.6968C201.728 32.194 203.49 31.3352 204.078 29.8888C204.666 28.4876 203.988 26.6796 202.632 25.9564C203.264 24.284 202.948 22.25 201.728 20.894C200.372 19.4024 198.021 18.9504 196.168 19.8092C196.71 18.5888 196.168 17.052 195.038 16.3288C193.908 15.6056 192.371 15.7412 191.286 16.5548C190.247 17.3684 189.704 18.7696 189.795 20.0804C187.896 19.8092 185.862 21.0296 185.32 22.8828C184.732 24.736 185.682 26.9056 187.444 27.7192C186.179 29.03 186.224 31.4256 187.535 32.6912C188.846 33.9568 191.196 33.9568 192.507 32.646C192.281 33.4144 192.462 34.3184 193.004 34.9512C193.546 35.5388 194.45 35.81 195.219 35.4936Z" fill="#F5F5F5"/>
  <path d="M192.914 48.0592C194.536 48.0592 195.852 46.7438 195.852 45.1212C195.852 43.4986 194.536 42.1832 192.914 42.1832C191.291 42.1832 189.976 43.4986 189.976 45.1212C189.976 46.7438 191.291 48.0592 192.914 48.0592Z" fill="#F5F5F5"/>
  <path d="M191.241 118.707C192.864 118.707 194.179 117.391 194.179 115.769C194.179 114.146 192.864 112.831 191.241 112.831C189.619 112.831 188.303 114.146 188.303 115.769C188.303 117.391 189.619 118.707 191.241 118.707Z" fill="#F5F5F5"/>
  <path d="M213.977 204.09C213.977 204.135 168.777 204.225 113 204.225C57.2234 204.225 12.0234 204.18 12.0234 204.09C12.0234 203.999 57.2234 203.954 113 203.954C168.777 203.999 213.977 204.044 213.977 204.09Z" fill="#263238"/>
  <path d="M139.759 85.756C139.985 83.948 138.357 82.366 136.64 81.7332C134.922 81.1004 133.024 81.01 131.351 80.332C129.091 79.3828 127.329 77.394 124.933 76.8516C121.724 76.1284 118.605 78.2528 115.983 80.2416C114.401 81.462 112.774 82.7276 111.192 83.948C109.881 84.9424 108.616 85.9368 107.305 86.9312C104.955 88.7392 102.559 90.6376 101.158 93.214L147.397 92.5812C147.262 88.7392 143.555 85.4396 139.759 85.756Z" fill="#BAC5FF"/>
  <path opacity="0.3" d="M115.983 80.1964C115.983 80.1964 109.475 86.2532 113 88.6036C116.571 90.9088 136.504 92.1292 136.504 92.1292H101.791C101.791 92.1292 103.327 90.0952 105.497 88.3324C106.446 87.564 115.983 80.1964 115.983 80.1964Z" fill="black"/>
  <g opacity="0.3">
    <path d="M121.859 86.4792C121.452 86.7504 121.452 87.4284 121.859 87.6996C122.266 87.9708 122.854 87.7448 122.989 87.2928C123.125 86.8408 122.718 85.982 121.859 86.4792Z" fill="black"/>
  </g>
  <g opacity="0.3">
    <path d="M115.893 83.044C115.486 83.3152 115.486 83.9932 115.893 84.2644C116.3 84.5356 116.887 84.3096 117.023 83.8576C117.113 83.4056 116.707 82.5468 115.893 83.044Z" fill="black"/>
  </g>
  <g opacity="0.3">
    <path d="M120.006 86.3888C119.825 86.5244 119.825 86.8408 120.006 86.9764C120.187 87.112 120.503 86.9764 120.594 86.7504C120.639 86.5696 120.413 86.1628 120.006 86.3888Z" fill="black"/>
  </g>
  <g opacity="0.3">
    <path d="M114.265 86.2532C114.085 86.3888 114.085 86.7052 114.265 86.8408C114.446 86.9764 114.763 86.8408 114.853 86.6148C114.853 86.3888 114.672 85.982 114.265 86.2532Z" fill="black"/>
  </g>
  <g opacity="0.3">
    <path d="M118.786 81.9592C118.605 82.0948 118.605 82.4112 118.786 82.5468C118.966 82.6824 119.283 82.5468 119.373 82.3208C119.418 82.0948 119.238 81.688 118.786 81.9592Z" fill="black"/>
  </g>
  <g opacity="0.3">
    <path d="M137.182 86.4792C136.323 86.0724 135.329 85.982 134.425 86.2532C134.108 84.8068 132.662 83.7672 131.17 83.8576V83.948C132.707 84.5356 133.702 85.982 133.566 87.6092C135.374 87.0216 137.498 87.3832 138.945 88.6036C138.674 87.6544 137.996 86.886 137.182 86.4792Z" fill="black"/>
  </g>
  <path d="M139.668 89.2364C139.623 89.2816 139.216 88.6488 138.222 88.0612C137.724 87.79 137.092 87.5188 136.323 87.3832C135.6 87.2476 134.741 87.2476 133.882 87.5188C133.837 87.5188 133.747 87.564 133.702 87.564L133.521 87.6092V87.4284C133.566 86.5696 133.25 85.8012 132.843 85.2136C132.436 84.626 131.848 84.2644 131.351 84.0384C130.312 83.6316 129.588 83.7672 129.588 83.722C129.588 83.722 129.769 83.6768 130.086 83.6316C130.402 83.6316 130.854 83.6768 131.396 83.8576C131.939 84.0384 132.526 84.4452 133.024 85.0328C133.476 85.6656 133.792 86.4792 133.792 87.3832L133.656 87.2476C133.702 87.2476 133.792 87.2024 133.837 87.2024C134.696 86.9312 135.6 86.9312 136.368 87.112C137.137 87.2476 137.815 87.564 138.312 87.8804C138.809 88.1968 139.171 88.5132 139.397 88.7844C139.623 89.0556 139.713 89.2364 139.668 89.2364Z" fill="#263238"/>
  <path d="M128.142 79.7444C128.097 79.7896 127.69 79.3828 126.967 78.9308C126.199 78.4788 125.069 77.9816 123.713 77.846C122.357 77.7104 121.136 77.9816 120.323 78.2528C119.464 78.524 119.012 78.8404 119.012 78.7952C119.012 78.7952 119.102 78.7048 119.328 78.5692C119.554 78.4336 119.871 78.2528 120.277 78.072C121.091 77.7104 122.357 77.4392 123.758 77.5748C125.159 77.7104 126.334 78.2528 127.057 78.75C127.419 79.0212 127.735 79.2472 127.916 79.428C128.097 79.6088 128.142 79.7444 128.142 79.7444Z" fill="white"/>
  <path d="M131.487 81.462C131.487 81.5072 131.08 81.5524 130.628 81.3264C130.176 81.1456 129.905 80.784 129.95 80.7388C129.995 80.6936 130.312 80.9196 130.719 81.1004C131.125 81.2812 131.487 81.3716 131.487 81.462Z" fill="white"/>
  <path d="M145.906 90.2308C145.861 90.2308 145.77 89.9144 145.544 89.4624C145.318 89.0104 144.866 88.4228 144.233 87.9256C143.601 87.4736 142.923 87.2476 142.38 87.1572C141.883 87.0668 141.521 87.0668 141.521 87.0216C141.521 86.9764 141.838 86.9312 142.38 86.9764C142.923 87.0216 143.646 87.2476 144.324 87.7448C145.002 88.242 145.409 88.8748 145.635 89.372C145.861 89.8692 145.906 90.1856 145.906 90.2308Z" fill="white"/>
  <path d="M150.2 105.418V97.5532H127.012H122.628H99.3948V105.418C99.3948 105.418 87.1908 109.757 88.0496 131.272C88.9084 152.788 99.3948 204.813 99.3948 204.813H120.548H129.001H150.154C150.154 204.813 160.641 152.788 161.5 131.272C162.404 109.757 150.2 105.418 150.2 105.418Z" fill="#754FE2"/>
  <path d="M152.369 98.5928H97.2255C95.8695 98.5928 94.7847 97.508 94.7847 96.152V94.344C94.7847 92.988 95.8695 91.9032 97.2255 91.9032H152.369C153.725 91.9032 154.81 92.988 154.81 94.344V96.152C154.81 97.508 153.725 98.5928 152.369 98.5928Z" fill="#455A64"/>
  <path d="M151.782 98.5928C151.782 98.638 139.939 98.7284 125.385 98.7284C110.785 98.7284 98.9883 98.6832 98.9883 98.5928C98.9883 98.5024 110.831 98.4572 125.385 98.4572C139.939 98.5024 151.782 98.5476 151.782 98.5928Z" fill="#263238"/>
  <path d="M150.2 105.011C150.2 105.056 138.809 105.147 124.797 105.147C110.74 105.147 99.395 105.102 99.395 105.011C99.395 104.921 110.785 104.876 124.797 104.876C138.855 104.921 150.2 104.966 150.2 105.011Z" fill="#263238"/>
  <path d="M161.409 133.984C161.409 133.984 161.364 133.894 161.364 133.758C161.319 133.578 161.274 133.352 161.183 133.035C161.002 132.402 160.686 131.498 160.008 130.459C159.33 129.419 158.245 128.334 156.708 127.521C155.94 127.114 155.036 126.798 154.087 126.617C153.138 126.481 152.053 126.481 150.968 126.707C149.883 126.933 148.844 127.43 147.849 128.108C147.352 128.47 146.9 128.877 146.493 129.329C146.086 129.781 145.725 130.323 145.454 130.911C144.821 132.041 144.414 133.306 143.781 134.572C143.194 135.838 142.38 137.058 141.386 138.098C140.391 139.182 139.171 140.086 137.724 140.719C136.323 141.352 134.741 141.668 133.114 141.533C131.532 141.442 129.905 140.9 128.549 139.906C127.193 138.911 126.198 137.51 125.294 136.109C124.345 134.708 123.486 133.306 122.311 132.131C121.181 130.956 119.735 130.188 118.243 129.69C115.26 128.741 111.96 129.103 109.474 130.504C108.209 131.182 107.169 132.176 106.31 133.261C105.452 134.346 104.728 135.476 103.96 136.516C103.192 137.555 102.333 138.55 101.338 139.228C100.299 139.906 99.1687 140.222 98.0387 140.358C95.8239 140.584 93.7899 139.951 92.2983 139.047C90.8067 138.098 89.8123 136.877 89.2247 135.792C88.6371 134.708 88.3659 133.758 88.2303 133.126C88.0947 132.493 88.0947 132.131 88.0947 132.131C88.0947 132.131 88.0947 132.222 88.1399 132.357C88.1851 132.538 88.1851 132.764 88.2755 133.08C88.4111 133.713 88.6823 134.662 89.2699 135.702C89.8575 136.787 90.8519 137.962 92.3435 138.866C93.8351 139.77 95.8239 140.358 97.9935 140.132C99.0783 140.041 100.208 139.68 101.203 139.047C102.197 138.369 103.011 137.42 103.779 136.38C104.548 135.34 105.271 134.21 106.13 133.126C106.988 132.041 108.073 131.046 109.339 130.323C111.915 128.877 115.26 128.515 118.288 129.51C119.825 130.007 121.272 130.82 122.447 131.996C123.622 133.171 124.526 134.617 125.43 136.018C126.379 137.42 127.328 138.776 128.639 139.725C129.905 140.719 131.487 141.216 133.069 141.307C134.651 141.397 136.188 141.126 137.589 140.493C138.99 139.86 140.165 138.956 141.16 137.917C142.154 136.877 142.922 135.657 143.51 134.436C144.098 133.216 144.55 131.905 145.182 130.775C145.499 130.188 145.86 129.645 146.267 129.193C146.674 128.696 147.171 128.289 147.623 127.928C148.618 127.204 149.702 126.752 150.787 126.526C151.872 126.255 152.957 126.255 153.951 126.436C154.946 126.617 155.85 126.933 156.618 127.34C158.2 128.154 159.285 129.284 159.963 130.323C160.641 131.363 160.957 132.312 161.093 132.945C161.364 133.623 161.409 133.984 161.409 133.984Z" fill="white"/>
  <path d="M161.002 124.086C161.002 124.131 144.775 124.221 124.797 124.221C104.773 124.221 88.5918 124.176 88.5918 124.086C88.5918 124.04 104.819 123.95 124.797 123.95C144.775 123.95 161.002 123.995 161.002 124.086Z" fill="white"/>
  <path d="M160.099 145.736C160.099 145.782 144.279 145.872 124.752 145.872C105.226 145.872 89.4058 145.827 89.4058 145.736C89.4058 145.691 105.226 145.601 124.752 145.601C144.233 145.601 160.099 145.691 160.099 145.736Z" fill="white"/>
  <path d="M134.515 130.685L134.018 130.64C133.024 130.73 132.165 131.634 132.21 132.628C132.21 133.623 133.069 134.527 134.063 134.572C135.058 134.617 136.007 133.804 136.143 132.809C136.233 131.905 135.51 130.866 134.515 130.685Z" fill="white"/>
  <path d="M151.963 136.109L151.465 136.064C150.471 136.154 149.612 137.058 149.657 138.052C149.657 139.047 150.516 139.951 151.511 139.996C152.505 140.041 153.454 139.228 153.59 138.233C153.68 137.284 152.957 136.29 151.963 136.109Z" fill="white"/>
  <path d="M116.029 137.239L115.531 137.194C114.537 137.284 113.678 138.188 113.723 139.182C113.723 140.177 114.582 141.081 115.577 141.126C116.571 141.171 117.52 140.358 117.656 139.363C117.746 138.414 117.023 137.42 116.029 137.239Z" fill="white"/>
  <path d="M96.0501 130.685L95.5529 130.64C94.5585 130.73 93.6997 131.634 93.7449 132.628C93.7449 133.623 94.6037 134.527 95.5981 134.572C96.5925 134.617 97.5417 133.804 97.6773 132.809C97.7677 131.905 97.0445 130.866 96.0501 130.685Z" fill="white"/>
  <path d="M154.765 181.716C154.765 181.716 154.719 181.716 154.584 181.67C154.448 181.67 154.267 181.58 154.041 181.58C153.544 181.49 152.866 181.444 151.917 181.535C151.013 181.625 149.883 181.942 148.753 182.529C147.623 183.162 146.448 184.156 145.634 185.603C144.776 187.004 144.278 188.767 143.329 190.484C142.38 192.202 140.979 193.829 139.125 195.004C137.272 196.225 134.922 196.858 132.526 196.541C131.351 196.36 130.131 195.999 129.091 195.321C128.051 194.643 127.147 193.739 126.379 192.699C124.842 190.71 123.712 188.45 121.949 186.868C120.232 185.241 117.972 184.473 115.847 184.247C114.763 184.156 113.723 184.202 112.683 184.382C111.689 184.563 110.74 184.88 109.836 185.286C109.429 185.512 108.977 185.738 108.615 186.01C108.435 186.145 108.254 186.281 108.073 186.416C107.892 186.552 107.711 186.733 107.576 186.868C106.898 187.456 106.446 188.179 105.949 188.857C105.497 189.535 105.045 190.168 104.547 190.756C104.05 191.343 103.598 191.84 103.056 192.247C102.061 193.106 100.977 193.558 100.073 193.784C99.8467 193.829 99.6207 193.92 99.4399 193.965C99.2591 194.01 99.0331 194.01 98.8523 194.055C98.6715 194.1 98.5359 194.1 98.3551 194.1C98.2195 194.1 98.0839 194.1 97.9483 194.1C97.7223 194.1 97.5415 194.1 97.4059 194.1C97.5415 194.1 97.7223 194.1 97.9483 194.055C98.0839 194.055 98.2195 194.055 98.3551 194.01C98.4907 194.01 98.6715 193.965 98.8523 193.92C99.0331 193.874 99.2139 193.874 99.3947 193.829C99.5755 193.784 99.8015 193.739 100.027 193.648C100.886 193.377 101.971 192.925 102.965 192.066C103.463 191.66 103.96 191.117 104.412 190.575C104.864 189.987 105.316 189.354 105.768 188.676C106.22 187.998 106.717 187.275 107.395 186.642C107.576 186.507 107.757 186.326 107.892 186.19C108.073 186.055 108.254 185.919 108.48 185.784C108.841 185.512 109.293 185.286 109.7 185.06C110.604 184.654 111.553 184.292 112.593 184.111C113.633 183.93 114.718 183.885 115.802 183.976C117.972 184.202 120.277 184.97 122.04 186.642C123.848 188.27 124.978 190.53 126.469 192.518C127.238 193.513 128.097 194.417 129.091 195.05C130.085 195.728 131.261 196.089 132.436 196.225C134.786 196.541 137.091 195.908 138.899 194.733C140.707 193.558 142.109 191.976 143.058 190.304C144.007 188.631 144.504 186.868 145.363 185.422C146.222 183.976 147.397 182.936 148.527 182.348C149.702 181.716 150.832 181.444 151.736 181.354C152.64 181.264 153.363 181.354 153.861 181.444C154.539 181.625 154.765 181.716 154.765 181.716Z" fill="white"/>
  <path d="M155.036 179.094C155.036 179.139 141.521 179.23 124.797 179.23C108.119 179.23 94.5586 179.184 94.5586 179.094C94.5586 179.049 108.073 178.958 124.797 178.958C141.521 178.958 155.036 179.049 155.036 179.094Z" fill="white"/>
  <path d="M151.013 200.745C151.013 200.79 139.352 200.88 124.933 200.88C110.514 200.88 98.8525 200.835 98.8525 200.745C98.8525 200.654 110.514 200.609 124.933 200.609C139.352 200.654 151.013 200.7 151.013 200.745Z" fill="white"/>
  <path d="M134.515 185.738L134.018 185.693C133.024 185.784 132.165 186.688 132.21 187.682C132.21 188.676 133.069 189.58 134.063 189.626C135.058 189.671 136.007 188.857 136.143 187.863C136.233 186.914 135.51 185.919 134.515 185.738Z" fill="white"/>
  <path d="M152.008 195.366C151.013 195.23 150.245 194.281 150.29 193.287C150.335 192.292 151.284 191.434 152.279 191.434L152.776 191.479L152.008 195.366Z" fill="white"/>
  <path d="M116.029 192.292L115.531 192.247C114.537 192.338 113.678 193.242 113.723 194.236C113.723 195.23 114.582 196.134 115.577 196.18C116.571 196.225 117.52 195.411 117.656 194.417C117.746 193.468 117.023 192.473 116.029 192.292Z" fill="white"/>
  <path d="M96.3214 185.829L95.8242 185.874L96.5474 189.761C97.5418 189.626 98.3554 188.676 98.265 187.682C98.2198 186.733 97.2706 185.874 96.3214 185.829Z" fill="white"/>
  <g opacity="0.3">
    <path d="M103.734 108.898C103.372 108.446 102.785 108.175 102.197 108.13C101.203 107.994 100.254 108.311 99.3948 108.672C98.8524 108.898 98.3552 109.215 97.9484 109.622C95.824 111.52 94.4228 114.051 93.564 116.628C92.6148 119.566 92.2984 122.639 91.982 125.713C91.6656 128.786 91.3944 131.996 93.112 134.753C93.5188 135.431 94.242 135.928 95.1008 136.064C96.728 136.335 97.6772 135.16 98.2196 134.03C99.8016 130.775 99.5756 127.069 99.5756 123.543C99.5756 120.018 99.892 116.221 102.197 113.328C103.282 111.972 104.864 110.3 103.734 108.898Z" fill="white"/>
  </g>
  <g opacity="0.3">
    <path d="M108.887 93.892C108.39 93.8016 99.3496 93.7112 99.3496 93.7112C98.2648 93.5756 97.1348 94.5248 97.2704 95.248C97.406 95.9712 98.0388 96.5136 98.762 96.7396C99.4852 96.9656 100.208 96.8752 100.977 96.8752C103.553 96.9204 105.813 96.8752 108.344 96.7396C108.751 96.7396 109.565 96.604 109.926 96.1972C111.011 94.9316 109.61 94.0276 108.887 93.892Z" fill="white"/>
  </g>
  <path d="M99.4403 106.548C99.4855 106.593 98.7171 107 97.6323 107.814C97.0899 108.22 96.4571 108.763 95.8243 109.35C95.1915 109.983 94.5135 110.752 93.9259 111.565C93.3383 112.424 92.8411 113.283 92.4343 114.051C92.0275 114.865 91.7111 115.633 91.5303 116.266C91.0783 117.577 90.9427 118.39 90.8975 118.39C90.8975 118.39 90.8975 118.164 90.9879 117.803C91.0331 117.622 91.0783 117.396 91.1235 117.125C91.1687 116.854 91.2591 116.537 91.3495 116.221C91.5303 115.543 91.8467 114.774 92.2083 113.961C92.6151 113.147 93.1123 112.288 93.7451 111.43C94.3779 110.571 95.0559 109.848 95.6887 109.215C96.3667 108.582 96.9995 108.085 97.5419 107.678C97.8131 107.452 98.0843 107.316 98.3103 107.181C98.5363 107.045 98.7623 106.91 98.8979 106.819C99.2143 106.593 99.4403 106.503 99.4403 106.548Z" fill="white"/>
  <path d="M100.706 104.333C100.66 104.333 100.48 103.429 100.344 102.344C100.208 101.26 100.163 100.356 100.208 100.31C100.254 100.31 100.434 101.214 100.57 102.299C100.706 103.429 100.751 104.333 100.706 104.333Z" fill="white"/>
  <path d="M97.5868 98.1408C97.5868 98.186 97.2252 98.0956 96.7732 97.734C96.3212 97.3724 95.7788 96.6944 95.6432 95.8356C95.5076 94.9316 95.7788 94.118 96.0952 93.666C96.4116 93.1688 96.728 92.988 96.728 92.988C96.7732 93.0332 96.502 93.2592 96.2308 93.7564C95.9596 94.2536 95.7336 94.9768 95.8692 95.7904C96.0048 96.604 96.4568 97.2368 96.8636 97.5984C97.2704 97.96 97.632 98.0956 97.5868 98.1408Z" fill="white"/>
  <g opacity="0.2">
    <path d="M101.203 98.7736C116.842 101.214 132.843 101.169 148.437 98.5928L101.203 98.7736Z" fill="black"/>
  </g>
  <path d="M135.103 74.1848C135.552 74.1848 135.916 73.8205 135.916 73.3712C135.916 72.9219 135.552 72.5576 135.103 72.5576C134.653 72.5576 134.289 72.9219 134.289 73.3712C134.289 73.8205 134.653 74.1848 135.103 74.1848Z" fill="#754FE2"/>
  <path d="M143.058 78.3432C143.282 78.3432 143.464 78.1611 143.464 77.9364C143.464 77.7117 143.282 77.5296 143.058 77.5296C142.833 77.5296 142.651 77.7117 142.651 77.9364C142.651 78.1611 142.833 78.3432 143.058 78.3432Z" fill="#754FE2"/>
  <path d="M141.069 73.5972C141.069 74.3656 140.436 74.9984 139.668 74.9984C138.899 74.9984 138.267 74.3656 138.267 73.5972C138.267 72.8288 138.899 72.196 139.668 72.196C140.436 72.2412 141.069 72.8288 141.069 73.5972Z" fill="#754FE2"/>
  <path d="M78.9191 136.787C79.1451 134.934 77.4727 133.352 75.7551 132.674C73.9923 131.996 72.0487 131.95 70.3311 131.227C68.0259 130.278 66.2179 128.199 63.7771 127.656C60.4775 126.888 57.3135 129.103 54.6467 131.137C53.0195 132.402 51.3923 133.668 49.7199 134.934C48.4091 135.973 47.0983 136.968 45.7423 138.007C43.3467 139.86 40.8607 141.804 39.4595 144.426L86.6935 143.748C86.6031 139.86 82.8063 136.47 78.9191 136.787Z" fill="#455A64"/>
  <path opacity="0.3" d="M54.6469 131.137C54.6469 131.137 48.0025 137.329 51.6185 139.725C55.2345 142.12 75.6197 143.341 75.6197 143.341H40.1377C40.1377 143.341 41.6745 141.262 43.9345 139.454C44.9289 138.64 54.6469 131.137 54.6469 131.137Z" fill="black"/>
  <path d="M87.8236 154.234L89.4056 145.782H74.58H53.336H38.5104L40.0924 154.234C40.0924 154.234 25.1764 160.065 26.216 179.456C26.8488 191.479 35.03 198.801 48.4092 202.01H79.5068C92.886 198.801 101.067 191.479 101.7 179.456C102.74 160.065 87.8236 154.234 87.8236 154.234Z" fill="#DDD1FF" fill-opacity="0.81"/>
  <path d="M91.7561 148.132H36.1601C35.1657 148.132 34.3521 147.318 34.3521 146.324V145.149C34.3521 144.154 35.1657 143.341 36.1601 143.341H91.7561C92.7505 143.341 93.564 144.154 93.564 145.149V146.324C93.564 147.318 92.7505 148.132 91.7561 148.132Z" fill="#2C3459"/>
  <path d="M79.733 200.474H48.4546V204.044H79.733V200.474Z" fill="#2C3459"/>
  <g opacity="0.3">
    <path d="M60.6586 137.555C60.2518 137.826 60.2518 138.504 60.6586 138.776C61.0654 139.047 61.6982 138.821 61.8338 138.369C61.9694 137.917 61.5174 137.013 60.6586 137.555Z" fill="black"/>
  </g>
  <g opacity="0.3">
    <path d="M54.5566 134.03C54.1498 134.301 54.1498 134.979 54.5566 135.25C54.9634 135.521 55.5962 135.295 55.7318 134.843C55.8222 134.391 55.4154 133.532 54.5566 134.03Z" fill="black"/>
  </g>
  <g opacity="0.3">
    <path d="M58.7601 137.465C58.5793 137.6 58.5793 137.962 58.7601 138.098C58.9409 138.233 59.2573 138.143 59.3477 137.872C59.3929 137.646 59.2121 137.194 58.7601 137.465Z" fill="black"/>
  </g>
  <g opacity="0.3">
    <path d="M52.8841 137.284C52.7033 137.42 52.7033 137.781 52.8841 137.917C53.0649 138.052 53.3813 137.962 53.4717 137.691C53.5169 137.465 53.2909 137.013 52.8841 137.284Z" fill="black"/>
  </g>
  <g opacity="0.3">
    <path d="M57.5394 132.9C57.3586 133.035 57.3586 133.397 57.5394 133.532C57.7202 133.668 58.0366 133.578 58.127 133.306C58.1722 133.08 57.9462 132.628 57.5394 132.9Z" fill="black"/>
  </g>
  <g opacity="0.3">
    <path d="M76.2978 137.51C75.439 137.058 74.3994 136.968 73.4954 137.284C73.179 135.838 71.6874 134.708 70.1958 134.843V134.934C71.7326 135.521 72.7722 137.013 72.6366 138.64C74.4898 138.052 76.6142 138.414 78.151 139.634C77.8346 138.73 77.1566 137.962 76.2978 137.51Z" fill="black"/>
  </g>
  <path d="M78.8742 140.358C78.829 140.403 78.4222 139.77 77.3826 139.182C76.8854 138.911 76.2074 138.595 75.4842 138.504C74.7158 138.369 73.857 138.369 72.9982 138.64C72.953 138.64 72.8626 138.685 72.8174 138.685L72.6366 138.73V138.55C72.6818 137.691 72.3654 136.877 71.9586 136.29C71.5066 135.702 70.9642 135.295 70.4218 135.114C69.3822 134.708 68.6138 134.843 68.6138 134.798C68.6138 134.798 68.7946 134.753 69.111 134.708C69.4274 134.708 69.9246 134.753 70.467 134.934C71.0094 135.114 71.6422 135.521 72.0942 136.154C72.5462 136.787 72.9078 137.646 72.8626 138.55L72.727 138.414C72.7722 138.414 72.8626 138.369 72.9078 138.369C73.8118 138.098 74.7158 138.098 75.4842 138.233C76.2526 138.369 76.9306 138.685 77.4278 139.002C77.925 139.318 78.2866 139.68 78.5126 139.906C78.7838 140.177 78.8742 140.358 78.8742 140.358Z" fill="#263238"/>
  <path d="M67.0766 130.64C67.0314 130.685 66.6246 130.278 65.8562 129.826C65.0878 129.374 63.9126 128.832 62.5566 128.696C61.2006 128.56 59.935 128.832 59.0762 129.103C58.2174 129.419 57.7202 129.69 57.7202 129.69C57.7202 129.69 57.8106 129.6 58.0366 129.464C58.2626 129.329 58.579 129.148 59.031 128.967C59.8898 128.606 61.1554 128.334 62.6018 128.47C64.003 128.606 65.2234 129.148 65.9918 129.69C66.3986 129.962 66.6698 130.188 66.8506 130.368C66.9862 130.549 67.0766 130.64 67.0766 130.64Z" fill="white"/>
  <path d="M70.5122 132.402C70.5122 132.448 70.1054 132.493 69.6082 132.267C69.1562 132.041 68.885 131.724 68.9302 131.679C68.9754 131.634 69.2918 131.86 69.6986 132.041C70.1506 132.267 70.5122 132.312 70.5122 132.402Z" fill="white"/>
  <path d="M85.2018 141.352C85.1566 141.352 85.0662 141.036 84.8402 140.584C84.6142 140.132 84.1622 139.499 83.5294 139.047C82.8966 138.55 82.1734 138.324 81.6762 138.233C81.1338 138.143 80.8174 138.143 80.8174 138.098C80.8174 138.052 81.1338 138.007 81.7214 138.052C82.2638 138.098 83.0322 138.324 83.7102 138.821C84.3882 139.318 84.8402 139.996 85.0662 140.493C85.2018 140.99 85.2018 141.352 85.2018 141.352Z" fill="white"/>
  <path d="M91.5752 148.132C91.5752 148.177 79.2356 148.222 64.0032 148.222C48.7708 148.222 36.4312 148.177 36.4312 148.087C36.4312 148.042 48.7708 147.996 64.0032 147.996C79.2356 147.996 91.5752 148.087 91.5752 148.132Z" fill="#263238"/>
  <path d="M79.733 202.056C79.733 202.101 72.727 202.191 64.0938 202.191C55.4606 202.191 48.4546 202.146 48.4546 202.056C48.4546 202.01 55.4606 201.92 64.0938 201.92C72.727 201.92 79.733 201.965 79.733 202.056Z" fill="#263238"/>
  <path d="M87.6425 154.37C87.6425 154.415 77.0205 154.505 63.9578 154.505C50.8497 154.505 40.2729 154.46 40.2729 154.37C40.2729 154.324 50.8949 154.234 63.9578 154.234C77.0205 154.279 87.6425 154.324 87.6425 154.37Z" fill="#263238"/>
  <path d="M101.7 179.501C101.7 179.501 101.655 179.456 101.61 179.365C101.519 179.275 101.429 179.184 101.339 179.004C101.067 178.687 100.706 178.235 100.254 177.602C99.3046 176.382 97.8582 174.574 96.0954 172.314H96.1858C94.2874 174.981 91.8918 178.28 89.1798 182.077L89.1346 182.168L89.0442 182.077C85.9706 179.139 82.5354 175.885 78.829 172.359H78.9646C76.117 175.388 73.0434 178.687 69.8342 182.122L69.7438 182.213L69.6534 182.122C67.8454 180.224 65.9018 178.19 63.9582 176.156C62.7378 174.89 61.5174 173.625 60.3422 172.359H60.523C57.4494 175.749 54.5114 179.004 51.7542 182.077L51.6638 182.168L51.5734 182.077C48.4998 178.597 45.607 175.297 42.9854 172.314H43.121C39.8214 176.02 36.8834 179.32 34.4878 182.032L34.4426 182.077L34.3974 181.987C31.9566 178.913 30.013 176.472 28.7022 174.8C28.0694 173.986 27.527 173.308 27.2106 172.902C27.0298 172.676 26.9394 172.54 26.849 172.404C26.7586 172.314 26.7134 172.224 26.7134 172.224C26.7134 172.224 26.7586 172.269 26.849 172.404C26.9394 172.54 27.075 172.676 27.2558 172.902C27.6174 173.354 28.1146 173.986 28.7926 174.8C30.1486 176.472 32.0922 178.913 34.533 181.942H34.4426C36.8382 179.23 39.731 175.93 43.0306 172.178L43.121 172.088L43.2114 172.178C45.8782 175.162 48.771 178.416 51.8446 181.896H51.6638C54.4662 178.823 57.4042 175.523 60.4326 172.133L60.523 172.043L60.6134 172.133C61.7886 173.399 63.009 174.664 64.2294 175.93C66.173 177.964 68.1166 179.953 69.9246 181.896H69.7438C72.953 178.461 76.0718 175.207 78.9194 172.178L79.0098 172.088L79.1002 172.178C82.8066 175.704 86.2418 179.004 89.2702 181.942H89.1346C91.8918 178.145 94.2874 174.845 96.1858 172.224L96.231 172.133L96.2762 172.178C98.039 174.438 99.4402 176.246 100.389 177.467C100.841 178.1 101.203 178.552 101.474 178.868C101.61 179.004 101.7 179.139 101.745 179.23C101.7 179.456 101.7 179.501 101.7 179.501Z" fill="white"/>
  <path d="M101.7 174.258C101.7 174.258 101.655 174.212 101.61 174.122C101.519 174.032 101.429 173.941 101.339 173.76C101.067 173.444 100.706 172.992 100.254 172.359C99.3046 171.139 97.8582 169.331 96.0954 167.071H96.1858C94.2874 169.738 91.8918 173.037 89.1798 176.834L89.1346 176.924L89.0442 176.834C85.9706 173.896 82.5354 170.642 78.829 167.116H78.9646C76.117 170.144 73.0434 173.444 69.8342 176.879L69.7438 176.97L69.6534 176.879C67.981 175.162 66.2634 173.354 64.5006 171.5C63.0994 170.009 61.6982 168.562 60.297 167.116H60.4778C57.4042 170.506 54.4662 173.76 51.709 176.834L51.6186 176.924L51.5282 176.834C48.4546 173.308 45.5618 170.054 42.9402 167.071H43.0758C39.731 170.822 36.8382 174.122 34.4426 176.789L34.3974 176.834L34.3522 176.789C32.2278 174.077 30.5554 171.952 29.3802 170.506C28.7926 169.783 28.3858 169.24 28.0694 168.834C27.9338 168.653 27.7982 168.517 27.753 168.382C27.6626 168.291 27.6626 168.246 27.6626 168.246C27.6626 168.246 27.7078 168.291 27.7982 168.382C27.8886 168.472 27.979 168.608 28.1598 168.788C28.4762 169.15 28.9282 169.738 29.5158 170.416C30.691 171.862 32.4086 173.986 34.533 176.653H34.4426C36.793 173.986 39.731 170.687 43.0306 166.89L43.121 166.8L43.2114 166.89C45.833 169.873 48.7258 173.128 51.8446 176.608H51.6638C54.421 173.534 57.359 170.28 60.4326 166.845L60.523 166.754L60.6134 166.845C61.9694 168.291 63.3706 169.738 64.817 171.229C66.5798 173.082 68.2974 174.89 69.9698 176.608H69.789C72.9982 173.173 76.117 169.918 78.9646 166.89L79.055 166.8L79.1454 166.89C82.8518 170.416 86.287 173.715 89.3154 176.653H89.1798C91.937 172.856 94.3326 169.557 96.231 166.935L96.2762 166.845L96.3214 166.89C98.0842 169.15 99.4854 170.958 100.435 172.178C100.887 172.811 101.248 173.263 101.519 173.58C101.655 173.715 101.745 173.851 101.791 173.941C101.7 174.212 101.7 174.258 101.7 174.258Z" fill="white"/>
  <path d="M35.5271 170.596C35.5271 171.048 35.1655 171.41 34.7135 171.41C34.2615 171.41 33.8999 171.048 33.8999 170.596C33.8999 170.144 34.2615 169.783 34.7135 169.783C35.1203 169.738 35.5271 170.144 35.5271 170.596Z" fill="white"/>
  <path d="M44.0247 180.314C44.0247 180.766 43.6631 181.128 43.2111 181.128C42.7591 181.128 42.3975 180.766 42.3975 180.314C42.3975 179.862 42.7591 179.501 43.2111 179.501C43.6631 179.501 44.0247 179.862 44.0247 180.314Z" fill="white"/>
  <path d="M61.0198 180.314C61.0198 180.766 60.6582 181.128 60.2062 181.128C59.7542 181.128 59.3926 180.766 59.3926 180.314C59.3926 179.862 59.7542 179.501 60.2062 179.501C60.6582 179.501 61.0198 179.862 61.0198 180.314Z" fill="white"/>
  <path d="M79.6877 180.314C79.6877 180.766 79.3261 181.128 78.8741 181.128C78.4221 181.128 78.0605 180.766 78.0605 180.314C78.0605 179.862 78.4221 179.501 78.8741 179.501C79.3261 179.501 79.6877 179.862 79.6877 180.314Z" fill="white"/>
  <path d="M97.135 180.314C97.135 180.766 96.7734 181.128 96.3214 181.128C95.8694 181.128 95.5078 180.766 95.5078 180.314C95.5078 179.862 95.8694 179.501 96.3214 179.501C96.7734 179.501 97.135 179.862 97.135 180.314Z" fill="white"/>
  <path d="M53.1101 169.738C53.1101 170.19 52.7485 170.551 52.2965 170.551C51.8445 170.551 51.4829 170.19 51.4829 169.738C51.4829 169.286 51.8445 168.924 52.2965 168.924C52.7485 168.924 53.1101 169.286 53.1101 169.738Z" fill="white"/>
  <path d="M70.6477 169.738C70.6477 170.19 70.2861 170.551 69.8341 170.551C69.3821 170.551 69.0205 170.19 69.0205 169.738C69.0205 169.286 69.3821 168.924 69.8341 168.924C70.2861 168.924 70.6477 169.286 70.6477 169.738Z" fill="white"/>
  <path d="M89.8577 169.738C89.8577 170.19 89.4961 170.551 89.0441 170.551C88.5921 170.551 88.2305 170.19 88.2305 169.738C88.2305 169.286 88.5921 168.924 89.0441 168.924C89.4961 168.924 89.8577 169.286 89.8577 169.738Z" fill="white"/>
  <path d="M97.4513 162.867C97.4513 162.867 97.4061 162.867 97.2705 162.912C97.1349 162.912 96.9541 162.958 96.7733 162.958C96.3213 163.003 95.6433 163.048 94.7845 163.093C93.0669 163.229 90.5809 163.364 87.5525 163.545C81.4505 163.862 72.9529 164.223 63.5965 164.268C54.2401 164.314 45.7877 164.042 39.6405 163.771C36.5669 163.636 34.0809 163.5 32.4085 163.364C31.5497 163.319 30.9169 163.274 30.4197 163.229C30.1937 163.229 30.0129 163.184 29.9225 163.184C30.0581 163.184 30.2389 163.184 30.4197 163.184C30.8717 163.184 31.5497 163.229 32.4085 163.274C34.1261 163.364 36.6121 163.455 39.6405 163.59C45.7425 163.816 54.2401 164.042 63.5965 163.997C72.9529 163.952 81.4053 163.636 87.5073 163.364C90.5809 163.229 93.0217 163.093 94.7393 163.003C95.5981 162.958 96.2309 162.912 96.7281 162.912C96.9541 162.912 97.1349 162.912 97.2253 162.912C97.4061 162.867 97.4513 162.867 97.4513 162.867Z" fill="white"/>
  <path d="M101.248 183.252C101.248 183.252 101.203 183.252 101.067 183.298C100.931 183.343 100.751 183.343 100.525 183.388C100.027 183.478 99.3042 183.569 98.4002 183.75C97.451 183.885 96.321 184.066 95.0102 184.247C93.6994 184.428 92.1626 184.654 90.4902 184.789C88.8178 184.97 86.9646 185.196 84.9758 185.332C83.9814 185.422 82.9418 185.512 81.9022 185.603C80.8626 185.648 79.7778 185.738 78.6478 185.784C74.173 186.01 69.2914 186.19 64.1386 186.145C58.9858 186.1 54.059 185.919 49.6294 185.693C45.1546 185.422 41.177 185.106 37.787 184.744C36.1146 184.608 34.5778 184.428 33.267 184.292C31.911 184.156 30.781 184.021 29.8318 183.885C28.8826 183.75 28.1594 183.659 27.6622 183.614C27.4362 183.569 27.2554 183.569 27.1198 183.524C26.9842 183.524 26.939 183.478 26.939 183.478C26.939 183.478 26.9842 183.478 27.1198 183.478C27.2554 183.478 27.4362 183.524 27.6622 183.524C28.1594 183.569 28.8826 183.659 29.8318 183.75C30.781 183.84 31.911 183.976 33.267 184.111C34.623 184.247 36.1146 184.382 37.787 184.563C41.1318 184.88 45.1546 185.151 49.5842 185.422C54.059 185.648 58.9406 185.829 64.0934 185.874C69.2462 185.919 74.1278 185.738 78.6026 185.512C79.7326 185.467 80.8174 185.377 81.857 185.332C82.8966 185.241 83.9362 185.151 84.9306 185.106C86.9194 184.97 88.7274 184.744 90.445 184.608C92.1174 184.473 93.6542 184.247 94.965 184.066C96.2758 183.93 97.451 183.75 98.355 183.614C99.259 183.478 99.9822 183.388 100.525 183.298C100.751 183.252 100.931 183.252 101.067 183.207C101.203 183.252 101.248 183.252 101.248 183.252Z" fill="white"/>
  <g opacity="0.2">
    <path d="M47.3242 159.116C47.2338 157.94 46.2394 156.81 45.1094 156.494C44.4314 156.313 43.6178 156.223 42.8042 156.268C42.3522 156.268 41.9002 156.358 41.4934 156.494L40.4538 156.856C39.9566 157.036 39.5046 157.217 39.0978 157.488C36.7926 158.98 34.5326 160.517 32.6794 162.506C30.6454 164.675 29.0634 167.432 28.8826 170.416C28.7922 171.817 29.2442 173.534 30.7358 173.851C31.459 173.986 32.1822 173.715 32.7698 173.263C33.8998 172.359 34.3066 171.003 34.8942 169.738C36.5666 166.167 39.821 163.364 43.6178 162.234C45.2902 161.737 47.4598 161.195 47.3242 159.116Z" fill="white"/>
  </g>
  <g opacity="0.2">
    <path d="M45.9685 144.652C45.6069 144.516 45.2453 144.516 44.8837 144.471C42.2169 144.2 39.6405 144.109 36.7477 144.38C36.2053 144.471 35.8889 145.104 36.0245 145.646C36.1601 146.188 36.6573 146.55 37.1997 146.731C37.7421 146.912 38.2845 146.866 38.8269 146.866C40.8157 146.776 42.8045 146.686 44.7933 146.64C45.2001 146.64 45.6069 146.595 45.9685 146.414C46.3301 146.234 46.6465 145.872 46.6013 145.465C46.6465 145.104 46.3301 144.787 45.9685 144.652Z" fill="white"/>
  </g>
  <path d="M36.16 147.138C36.16 147.138 35.934 147.047 35.7532 146.776C35.5724 146.505 35.3464 146.053 35.3916 145.51C35.4368 144.968 35.708 144.561 35.9792 144.335C36.2504 144.109 36.4312 144.019 36.4312 144.064C36.4312 144.109 36.2956 144.2 36.0696 144.471C35.8888 144.697 35.6628 145.104 35.6176 145.556C35.5724 146.008 35.708 146.46 35.8888 146.731C36.0244 146.957 36.16 147.138 36.16 147.138Z" fill="white"/>
  <path d="M40.4541 153.556C40.4089 153.556 40.2733 152.607 40.0925 151.477C39.9117 150.302 39.8213 149.352 39.8665 149.352C39.9117 149.352 40.1829 150.256 40.3185 151.432C40.4993 152.562 40.4993 153.556 40.4541 153.556Z" fill="white"/>
  <g opacity="0.2">
    <path d="M61.2461 199.118C68.3877 199.841 75.6197 200.79 82.5805 199.027C89.5413 197.264 96.2309 192.428 98.1293 185.512C86.7389 192.247 74.4445 198.214 61.2461 199.118Z" fill="black"/>
  </g>
  <g opacity="0.2">
    <path d="M41.313 147.996C56.9974 150.844 73.179 150.98 88.8634 147.996H41.313Z" fill="black"/>
  </g>
  <path d="M70.5119 126.165C70.5119 126.617 70.1503 126.933 69.7435 126.933C69.3367 126.933 68.9751 126.572 68.9751 126.165C68.9751 125.713 69.3367 125.396 69.7435 125.396C70.1503 125.396 70.5119 125.713 70.5119 126.165Z" fill="#455A64"/>
  <path d="M77.4273 131.001C77.652 131.001 77.8341 130.819 77.8341 130.594C77.8341 130.37 77.652 130.188 77.4273 130.188C77.2026 130.188 77.0205 130.37 77.0205 130.594C77.0205 130.819 77.2026 131.001 77.4273 131.001Z" fill="#455A64"/>
  <path d="M74.1729 127.747C74.9218 127.747 75.5289 127.14 75.5289 126.391C75.5289 125.642 74.9218 125.035 74.1729 125.035C73.424 125.035 72.8169 125.642 72.8169 126.391C72.8169 127.14 73.424 127.747 74.1729 127.747Z" fill="#455A64"/>
  <path d="M180.122 167.975C180.393 165.805 178.449 163.907 176.37 163.138C174.291 162.37 172.031 162.28 169.997 161.421C167.285 160.291 165.161 157.85 162.313 157.217C158.471 156.313 154.719 158.89 151.601 161.33C149.657 162.822 147.759 164.314 145.815 165.76C144.278 166.98 142.696 168.156 141.159 169.376C138.357 171.546 135.419 173.806 133.747 176.97L189.297 176.201C189.162 171.591 184.687 167.568 180.122 167.975Z" fill="#B2A7D4"/>
  <path opacity="0.3" d="M151.556 161.33C151.556 161.33 143.691 168.653 147.985 171.41C152.279 174.212 176.235 175.659 176.235 175.659H134.515C134.515 175.659 136.368 173.218 138.945 171.094C140.12 170.144 151.556 161.33 151.556 161.33Z" fill="black"/>
  <g opacity="0.3">
    <path d="M158.652 168.879C158.2 169.195 158.2 170.009 158.652 170.325C159.104 170.642 159.872 170.37 160.008 169.828C160.144 169.286 159.646 168.246 158.652 168.879Z" fill="black"/>
  </g>
  <g opacity="0.3">
    <path d="M151.42 164.72C150.968 165.037 150.968 165.85 151.42 166.167C151.872 166.483 152.64 166.212 152.776 165.67C152.956 165.127 152.459 164.088 151.42 164.72Z" fill="black"/>
  </g>
  <g opacity="0.3">
    <path d="M156.392 168.743C156.166 168.924 156.166 169.286 156.392 169.466C156.618 169.647 157.024 169.512 157.07 169.24C157.16 168.969 156.934 168.427 156.392 168.743Z" fill="black"/>
  </g>
  <g opacity="0.3">
    <path d="M149.476 168.562C149.25 168.743 149.25 169.105 149.476 169.286C149.702 169.466 150.109 169.331 150.154 169.06C150.245 168.743 149.973 168.246 149.476 168.562Z" fill="black"/>
  </g>
  <g opacity="0.3">
    <path d="M154.945 163.41C154.719 163.59 154.719 163.952 154.945 164.133C155.171 164.314 155.578 164.178 155.623 163.907C155.714 163.59 155.443 163.093 154.945 163.41Z" fill="black"/>
  </g>
  <g opacity="0.3">
    <path d="M177.003 168.834C176.009 168.336 174.788 168.201 173.704 168.562C173.297 166.845 171.579 165.534 169.816 165.67V165.76C171.624 166.483 172.845 168.201 172.709 170.144C174.879 169.421 177.41 169.918 179.218 171.32C178.811 170.235 178.043 169.331 177.003 168.834Z" fill="black"/>
  </g>
  <path d="M180.032 172.178C179.986 172.224 179.489 171.455 178.269 170.777C177.681 170.416 176.913 170.099 176.009 169.964C175.105 169.783 174.11 169.828 173.071 170.099C172.98 170.144 172.935 170.144 172.845 170.144L172.664 170.19V170.009C172.709 169.014 172.348 168.02 171.85 167.342C171.353 166.619 170.675 166.167 170.042 165.941C169.41 165.67 168.867 165.624 168.506 165.624C168.144 165.624 167.918 165.624 167.918 165.624C167.918 165.624 167.963 165.624 168.054 165.579C168.144 165.579 168.28 165.534 168.506 165.534C168.867 165.534 169.455 165.579 170.088 165.805C170.72 166.031 171.444 166.483 171.986 167.252C172.528 167.975 172.935 168.969 172.89 170.054L172.754 169.918C172.845 169.918 172.89 169.873 172.98 169.828C174.02 169.512 175.105 169.512 176.009 169.692C176.913 169.873 177.726 170.235 178.314 170.596C178.902 170.958 179.354 171.365 179.58 171.636C179.715 171.772 179.806 171.907 179.851 171.998C180.032 172.088 180.077 172.133 180.032 172.178Z" fill="#263238"/>
  <path d="M166.2 160.743C166.155 160.788 165.703 160.291 164.754 159.748C163.85 159.206 162.448 158.618 160.821 158.438C159.194 158.257 157.702 158.573 156.708 158.935C155.714 159.296 155.126 159.658 155.126 159.613C155.126 159.613 155.262 159.477 155.488 159.342C155.759 159.161 156.12 158.98 156.663 158.754C157.657 158.347 159.194 157.986 160.821 158.166C162.494 158.347 163.895 158.98 164.799 159.568C165.251 159.884 165.612 160.155 165.793 160.336C166.11 160.607 166.2 160.743 166.2 160.743Z" fill="white"/>
  <path d="M170.223 162.822C170.223 162.867 169.726 162.912 169.184 162.641C168.641 162.415 168.325 162.008 168.37 161.963C168.415 161.918 168.777 162.189 169.274 162.415C169.771 162.641 170.223 162.732 170.223 162.822Z" fill="white"/>
  <path d="M187.49 173.354C187.444 173.354 187.354 172.992 187.083 172.404C186.812 171.862 186.269 171.139 185.501 170.551C184.732 170.009 183.919 169.692 183.286 169.602C182.653 169.512 182.292 169.512 182.292 169.466C182.292 169.421 182.698 169.376 183.331 169.421C183.964 169.512 184.868 169.738 185.682 170.325C186.495 170.913 186.992 171.681 187.264 172.269C187.49 172.947 187.535 173.308 187.49 173.354Z" fill="white"/>
  <path d="M191.919 178.913H163.262H162.358H133.702C133.702 178.913 135.6 202.372 162.358 203.412V203.457C162.494 203.457 162.675 203.457 162.81 203.457C162.946 203.457 163.127 203.457 163.262 203.457V203.412C190.021 202.417 191.919 178.913 191.919 178.913Z" fill="#263238"/>
  <path d="M171.534 201.649H154.855V204.09H171.534V201.649Z" fill="#263238"/>
  <path d="M194.044 180.043H132.346C131.351 180.043 130.538 179.23 130.538 178.235V176.97C130.538 175.975 131.351 175.162 132.346 175.162H193.998C194.993 175.162 195.806 175.975 195.806 176.97V178.235C195.806 179.23 195.038 180.043 194.044 180.043Z" fill="#263238"/>
  <path d="M193.139 179.908C193.139 179.953 179.805 180.043 163.398 180.043C146.99 180.043 133.656 179.998 133.656 179.908C133.656 179.862 146.99 179.772 163.398 179.772C179.805 179.772 193.139 179.817 193.139 179.908Z" fill="#455A64"/>
  <path d="M171.625 202.462C171.625 202.508 167.828 202.598 163.172 202.598C158.517 202.598 154.72 202.553 154.72 202.462C154.72 202.417 158.517 202.327 163.172 202.327C167.873 202.327 171.625 202.372 171.625 202.462Z" fill="#455A64"/>
  <path d="M189.614 186.778C189.614 186.823 177.591 186.914 162.765 186.914C147.94 186.914 135.917 186.868 135.917 186.778C135.917 186.733 147.94 186.642 162.765 186.642C177.591 186.642 189.614 186.688 189.614 186.778Z" fill="#455A64"/>
  <path d="M188.8 188.812C188.8 188.857 177.184 188.993 162.901 189.038C148.572 189.128 137.001 189.128 137.001 189.038C137.001 188.993 148.572 188.857 162.901 188.812C177.184 188.722 188.8 188.722 188.8 188.812Z" fill="#FF725E"/>
  <path d="M187.49 191.208C187.49 191.253 176.461 191.343 162.856 191.343C149.25 191.343 138.222 191.298 138.222 191.208C138.222 191.117 149.25 191.072 162.856 191.072C176.461 191.072 187.49 191.117 187.49 191.208Z" fill="white"/>
  <g opacity="0.1">
    <path d="M146.719 176.834C146.448 176.427 145.905 176.337 145.408 176.337C141.521 176.246 137.589 176.382 133.747 176.246C133.204 176.201 132.3 176.472 132.255 177.015C132.21 177.557 132.662 178.054 133.159 178.235C133.656 178.461 134.199 178.461 134.786 178.461C138.131 178.461 141.476 178.416 144.821 178.416C145.318 178.416 145.86 178.416 146.312 178.145C146.674 177.874 146.99 177.286 146.719 176.834Z" fill="white"/>
  </g>
  <g opacity="0.1">
    <path d="M138.674 187.772C140.301 190.801 141.612 192.021 144.007 194.507C146.403 196.993 149.657 198.892 153.092 198.801C153.409 198.801 153.77 198.756 154.042 198.575C154.539 198.168 154.403 197.355 153.996 196.903C153.59 196.451 152.957 196.27 152.369 196.044C148.392 194.643 145.002 191.705 143.013 187.998C142.561 187.094 142.109 186.145 141.295 185.558C140.482 184.97 139.035 185.151 138.719 186.326C138.674 186.326 138.448 187.411 138.674 187.772Z" fill="white"/>
  </g>
  <g opacity="0.2">
    <path d="M166.426 199.434C171.398 199.524 176.415 197.942 180.438 195.05C184.461 192.157 187.535 187.908 189.071 183.117C183.015 190.032 175.331 195.547 166.833 199.118" fill="black"/>
  </g>
  <g opacity="0.2">
    <path d="M137.408 180.043C153.635 184.021 171.127 184.337 187.264 179.998L137.408 180.043Z" fill="black"/>
  </g>
  <path d="M169.681 155.228C169.681 155.68 169.319 156.042 168.867 156.042C168.415 156.042 168.054 155.68 168.054 155.228C168.054 154.776 168.415 154.415 168.867 154.415C169.319 154.46 169.681 154.776 169.681 155.228Z" fill="#754FE2"/>
  <path d="M176.732 160.155C176.957 160.155 177.139 159.973 177.139 159.748C177.139 159.524 176.957 159.342 176.732 159.342C176.507 159.342 176.325 159.524 176.325 159.748C176.325 159.973 176.507 160.155 176.732 160.155Z" fill="#754FE2"/>
  <path d="M174.789 155.454C174.789 156.223 174.156 156.81 173.433 156.81C172.664 156.81 172.077 156.178 172.077 155.454C172.077 154.686 172.709 154.098 173.433 154.098C174.156 154.098 174.789 154.731 174.789 155.454Z" fill="#754FE2"/>
</svg>