<svg width="1264" height="199" viewBox="0 0 1264 199" fill="none" xmlns="http://www.w3.org/2000/svg">
<path d="M102 292H9.53674e-07V12H102C189.2 12 247.2 69.2 247.2 151.6C247.2 233.6 189.2 292 102 292ZM60 62V242H102C155.6 242 185.6 204.8 185.6 151.6C185.6 98 155.6 62 102 62H60ZM380.794 294.4C312.394 294.4 271.194 253.2 271.194 189.6C271.194 125.6 313.194 84 376.794 84C438.394 84 479.994 122.4 480.794 182.8C480.794 188.8 480.394 195.6 479.194 202H329.994V204.8C331.194 234 349.994 251.6 378.394 251.6C401.194 251.6 417.194 241.6 421.994 222.4H477.594C471.194 262.4 435.594 294.4 380.794 294.4ZM331.194 165.2H423.994C419.994 140 402.794 126 377.194 126C352.794 126 334.394 140.8 331.194 165.2ZM500.453 223.6H554.053C556.053 241.6 571.653 254 599.253 254C622.853 254 637.253 246.4 637.253 232C637.253 215.2 623.253 214 590.053 209.6C542.053 204 504.853 193.2 504.853 150.8C504.853 110 540.453 83.2 593.253 83.6C648.453 83.6 686.453 108 689.253 150H635.253C633.653 133.6 618.053 123.6 595.253 123.6C573.253 123.6 558.853 131.6 558.853 144.8C558.853 160.4 576.453 162 606.053 165.6C653.253 170.4 692.453 181.2 692.453 227.6C692.453 268.4 654.053 294.4 598.853 294.4C541.653 294.4 502.853 267.6 500.453 223.6ZM750.563 64.4C732.163 64.4 717.763 50.8 717.763 32.8C717.763 14.4 732.163 0.799982 750.563 0.799982C768.963 0.799982 783.363 14.4 783.363 32.8C783.363 50.8 768.963 64.4 750.563 64.4ZM722.163 292V86.4H778.963V292H722.163ZM969.066 114.8L973.866 86.4H1023.47V286C1023.47 336.8 992.266 374.4 913.466 374.4C856.266 374.4 817.066 348.4 814.266 300.8H871.066C876.266 320.4 891.866 331.6 917.866 331.6C949.466 331.6 968.266 316 968.266 284V262.4C954.666 279.6 934.266 290.8 905.466 290.8C850.266 291.2 809.866 250.8 809.866 187.2C809.866 124.4 850.266 83.6 905.066 83.6C934.666 83.6 955.466 96.8 969.066 114.8ZM917.866 245.6C948.666 245.6 967.866 222 967.866 188C967.866 153.6 948.666 129.2 917.866 129.2C887.066 129.2 867.466 153.2 867.466 187.6C867.466 222 887.066 245.6 917.866 245.6ZM1180.79 84C1225.19 84 1263.19 107.6 1263.19 178V292H1206.79V183.6C1206.79 148.8 1193.59 130.4 1165.19 130.4C1135.99 130.4 1119.19 151.2 1119.19 186.8V292H1062.79V86.4H1111.99L1117.19 112C1130.39 96 1149.19 84 1180.79 84Z" fill="#F3EFFF"/>
</svg>
