<svg width="172" height="16" viewBox="0 0 172 16" fill="none" xmlns="http://www.w3.org/2000/svg">
<path d="M2.54842 3.54818C23.4834 3.68801 44.4185 3.82784 65.3337 3.96767C81.9312 4.07254 98.5485 4.19489 115.146 4.29976C112.393 4.47455 109.62 4.66682 106.867 4.84161C87.972 6.08259 69.0969 7.32358 50.2019 8.56457C39.6056 9.26372 28.9895 9.96287 18.3933 10.662C17.2643 10.7319 15.7195 11.3262 15.4026 12.3924C15.1055 13.3712 16.0562 14.1228 17.1653 14.1578C37.0506 14.9443 56.9359 15.4162 76.841 15.5735C96.5085 15.7308 116.156 15.5735 135.804 15.1191C146.836 14.8569 157.888 14.4899 168.92 14.0354C170.108 13.983 171.831 13.2663 171.989 12.0778C172.148 10.8368 170.484 10.4872 169.434 10.5222C149.807 11.3437 130.139 11.8331 110.492 12.0254C91.7946 12.2001 73.3354 12.1128 54.7374 11.7282C61.3527 11.2913 67.9481 10.8543 74.5633 10.4173C93.4583 9.17633 112.334 7.93534 131.229 6.69435C141.825 5.9952 152.441 5.29605 163.037 4.5969C164.225 4.52699 165.949 3.84532 166.107 2.63929C166.285 1.36334 164.602 1.10116 163.552 1.08368C142.617 0.943851 121.682 0.804021 100.767 0.664192C79.9506 0.524362 59.1344 0.384532 38.2984 0.244702C26.5534 0.157309 14.8282 0.0873936 3.08317 0C1.89481 0 0.151873 0.804022 0.0132304 1.95762C-0.165024 3.26852 1.4987 3.54818 2.54842 3.54818Z" fill="#754FE2"/>
</svg>
