<svg width="25" height="25" viewBox="0 0 25 25" fill="none" xmlns="http://www.w3.org/2000/svg">
<g clip-path="url(#clip0_1_1008)">
<path d="M8.33401 12.5C8.33401 10.291 10.1989 8.49968 12.5 8.49968C14.8011 8.49968 16.667 10.291 16.667 12.5C16.667 14.709 14.8011 16.5003 12.5 16.5003C10.1989 16.5003 8.33401 14.709 8.33401 12.5ZM6.08138 12.5C6.08138 15.9032 8.95497 18.6619 12.5 18.6619C16.045 18.6619 18.9186 15.9032 18.9186 12.5C18.9186 9.09677 16.045 6.33813 12.5 6.33813C8.95497 6.33813 6.08138 9.09677 6.08138 12.5ZM17.6727 6.09386C17.6727 6.88869 18.3441 7.53425 19.1731 7.53425C20.001 7.53425 20.6735 6.88869 20.6735 6.09386C20.6735 5.29903 20.002 4.65444 19.1731 4.65444C18.3441 4.65444 17.6727 5.29903 17.6727 6.09386ZM7.44952 22.2677C6.23082 22.2144 5.56846 22.0195 5.12823 21.8548C4.54463 21.6367 4.12863 21.3769 3.69043 20.9572C3.25323 20.5375 2.98162 20.1381 2.75545 19.5779C2.5838 19.1553 2.38086 18.5194 2.32532 17.3494C2.26474 16.0845 2.25263 15.7045 2.25263 12.5C2.25263 9.29548 2.26575 8.91648 2.32532 7.65057C2.38086 6.48061 2.58481 5.84572 2.75545 5.42213C2.98263 4.86187 3.25323 4.46252 3.69043 4.04184C4.12763 3.62213 4.54362 3.36139 5.12823 3.14426C5.56846 2.97948 6.23082 2.78465 7.44952 2.73134C8.76717 2.67318 9.16296 2.66155 12.5 2.66155C15.838 2.66155 16.2328 2.67415 17.5515 2.73134C18.7702 2.78465 19.4315 2.98045 19.8728 3.14426C20.4564 3.36139 20.8724 3.62213 21.3106 4.04184C21.7478 4.46155 22.0184 4.86187 22.2456 5.42213C22.4172 5.84475 22.6202 6.48061 22.6757 7.65057C22.7363 8.91648 22.7484 9.29548 22.7484 12.5C22.7484 15.7036 22.7363 16.0835 22.6757 17.3494C22.6202 18.5194 22.4162 19.1553 22.2456 19.5779C22.0184 20.1381 21.7478 20.5375 21.3106 20.9572C20.8734 21.3769 20.4564 21.6367 19.8728 21.8548C19.4326 22.0195 18.7702 22.2144 17.5515 22.2677C16.2338 22.3258 15.838 22.3375 12.5 22.3375C9.16296 22.3375 8.76717 22.3258 7.44952 22.2677ZM7.34653 0.572698C6.01575 0.630856 5.10703 0.833441 4.3124 1.13005C3.49051 1.43635 2.79382 1.84733 2.09814 2.51422C1.40347 3.1811 0.975364 3.84992 0.6563 4.6399C0.347334 5.40275 0.136309 6.27512 0.075727 7.55267C0.0141357 8.83215 0 9.2412 0 12.5C0 15.7588 0.0141357 16.1679 0.075727 17.4473C0.136309 18.7249 0.347334 19.5973 0.6563 20.3601C0.975364 21.1491 1.40246 21.8189 2.09814 22.4858C2.79281 23.1527 3.4895 23.5627 4.3124 23.87C5.10804 24.1666 6.01575 24.3691 7.34653 24.4273C8.68033 24.4855 9.10541 24.5 12.5 24.5C15.8956 24.5 16.3207 24.4864 17.6535 24.4273C18.9842 24.3691 19.893 24.1666 20.6876 23.87C21.5095 23.5627 22.2062 23.1527 22.9019 22.4858C23.5965 21.8189 24.0236 21.1491 24.3437 20.3601C24.6527 19.5973 24.8647 18.7249 24.9243 17.4473C24.9849 16.1669 24.999 15.7588 24.999 12.5C24.999 9.2412 24.9849 8.83215 24.9243 7.55267C24.8637 6.27512 24.6527 5.40275 24.3437 4.6399C24.0236 3.85089 23.5965 3.18207 22.9019 2.51422C22.2072 1.84733 21.5095 1.43635 20.6886 1.13005C19.893 0.833441 18.9842 0.629887 17.6545 0.572698C16.3217 0.51454 15.8956 0.5 12.501 0.5C9.10541 0.5 8.68033 0.51357 7.34653 0.572698Z" fill="#754FE2"/>
</g>
<defs>
<clipPath id="clip0_1_1008">
<rect y="0.5" width="25" height="24" fill="white"/>
</clipPath>
</defs>
</svg>
