<svg xmlns="http://www.w3.org/2000/svg" width="28" height="29" viewBox="0 0 28 29" fill="none">
  <path d="M25.6668 7.26667C24.7899 7.64711 23.8625 7.89861 22.9135 8.01333C23.9147 7.41521 24.665 6.47425 25.0252 5.365C24.0843 5.92507 23.0544 6.31968 21.9802 6.53167C21.2621 5.753 20.306 5.23468 19.2616 5.05799C18.2173 4.88131 17.1438 5.05625 16.2096 5.55539C15.2754 6.05452 14.5333 6.84962 14.0996 7.81598C13.666 8.78233 13.5653 9.86529 13.8135 10.895C11.9112 10.7988 10.0503 10.3034 8.35193 9.44117C6.65351 8.5789 5.15548 7.36898 3.95516 5.89C3.53416 6.6252 3.31294 7.45779 3.3135 8.305C3.312 9.09178 3.50508 9.86672 3.87554 10.5608C4.246 11.2549 4.78235 11.8467 5.43683 12.2833C4.67614 12.2626 3.9317 12.0585 3.26683 11.6883V11.7467C3.27253 12.849 3.65882 13.9156 4.36036 14.766C5.0619 15.6163 6.03563 16.1982 7.11683 16.4133C6.70063 16.54 6.26852 16.6068 5.8335 16.6117C5.53237 16.6081 5.23199 16.5808 4.93516 16.53C5.24306 17.4783 5.83889 18.307 6.63975 18.9009C7.44061 19.4947 8.40667 19.8241 9.4035 19.8433C7.72023 21.1678 5.64203 21.8907 3.50016 21.8967C3.11019 21.8979 2.72052 21.8746 2.3335 21.8267C4.52033 23.2386 7.06878 23.9882 9.67183 23.985C11.4681 24.0037 13.2502 23.6642 14.9138 22.9864C16.5774 22.3087 18.0894 21.3062 19.3612 20.0376C20.6331 18.769 21.6395 17.2596 22.3215 15.5977C23.0035 13.9358 23.3475 12.1547 23.3335 10.3583C23.3335 10.16 23.3335 9.95 23.3335 9.74C24.249 9.05728 25.0386 8.22033 25.6668 7.26667Z" fill="#754FE2"/>
</svg>